/* XPM */
static char *_c684211c64f4326f2fbc142531463334alR7S1qrPacoww4[] = {
/* columns rows colors chars-per-pixel */
"64 64 225 2 ",
"   c #262601",
".  c #2B2B01",
"X  c #302F01",
"o  c #343301",
"O  c #383702",
"+  c #3C3B02",
"@  c #403F02",
"#  c #444302",
"$  c #494700",
"%  c #4B4A02",
"&  c #4E4C0B",
"*  c #504F02",
"=  c #535302",
"-  c #585703",
";  c #5C5B03",
":  c #5B5A08",
">  c #514F11",
",  c #555317",
"<  c #605F02",
"1  c #646303",
"2  c #696702",
"3  c #6C6B04",
"4  c #6B690C",
"5  c #706F03",
"6  c #747304",
"7  c #787704",
"8  c #7C7A04",
"9  c #74730E",
"0  c #6B6A17",
"q  c #716F18",
"w  c #5E5C28",
"e  c #615F2A",
"r  c #6B6B32",
"t  c #6C6B3A",
"y  c #787839",
"u  c #797945",
"i  c #807F04",
"p  c #799800",
"a  c #848304",
"s  c #888604",
"d  c #8C8B04",
"f  c #8A890F",
"g  c #908F03",
"h  c #859E00",
"j  c #8C9C00",
"k  c #8B9B09",
"l  c #959304",
"z  c #999604",
"x  c #929D00",
"c  c #9E9B03",
"v  c #9A970B",
"b  c #9A9819",
"n  c #A09E03",
"m  c #85A300",
"M  c #8BA500",
"N  c #8DAA00",
"B  c #8DA70B",
"V  c #93A200",
"C  c #9CA400",
"Z  c #93AD00",
"A  c #9BAB00",
"S  c #94AD0D",
"D  c #9BAD0D",
"F  c #8FB000",
"G  c #95B100",
"H  c #9BB400",
"J  c #9EB900",
"K  c #96B10D",
"L  c #9CB40D",
"P  c #9EB90D",
"I  c #9AAA17",
"U  c #9CB516",
"Y  c #9EB916",
"T  c #9EB51C",
"R  c #9FB91C",
"E  c #A3A404",
"W  c #A4AC00",
"Q  c #ABAD02",
"!  c #A9A70A",
"~  c #A3AC0D",
"^  c #B0AF06",
"/  c #A3B300",
"(  c #ACB300",
")  c #A3BC00",
"_  c #ACB900",
"`  c #A2B50D",
"'  c #ADB40D",
"]  c #A3BB0D",
"[  c #AABC0D",
"{  c #B2B401",
"}  c #B2BA00",
"|  c #BABB02",
" . c #B3B50D",
".. c #B8B708",
"X. c #B3BB0D",
"o. c #BBBB0D",
"O. c #A8A919",
"+. c #A1B516",
"@. c #ACB415",
"#. c #A4BB16",
"$. c #AABD16",
"%. c #A1B61C",
"&. c #A4BC1C",
"*. c #A9BE1D",
"=. c #B5BA16",
"-. c #BABB15",
";. c #B6B91B",
":. c #999828",
">. c #8A8D33",
",. c #9B9C37",
"<. c #A19E33",
"1. c #9EB723",
"2. c #A7A528",
"3. c #A5BA27",
"4. c #A7BE24",
"5. c #B8BC25",
"6. c #A8A63A",
"7. c #A6B838",
"8. c #B9BA32",
"9. c #C0BD08",
"0. c #C1BF16",
"q. c #A6C000",
"w. c #ABC300",
"e. c #A6C00D",
"r. c #ABC30D",
"t. c #AFC908",
"y. c #B4C200",
"u. c #BCC300",
"i. c #B1C50D",
"p. c #BCC50D",
"a. c #B4CB0D",
"s. c #BCD20D",
"d. c #A7C016",
"f. c #ACC316",
"g. c #ACC21C",
"h. c #B4CB16",
"j. c #B5C818",
"k. c #BBD11A",
"l. c #ACC323",
"z. c #AAC129",
"x. c #B7C625",
"c. c #B4CA23",
"v. c #ADC136",
"b. c #B6C538",
"n. c #C4C305",
"m. c #CCCB05",
"M. c #C5C70C",
"N. c #D1CF02",
"B. c #D5D305",
"V. c #DCDA05",
"C. c #D8D60A",
"Z. c #C9C918",
"A. c #D7D519",
"S. c #E1DF05",
"D. c #E2E005",
"F. c #E3E10A",
"G. c #E4E216",
"H. c #C4C727",
"J. c #D8D728",
"K. c #CCCC36",
"L. c #E0DF20",
"P. c #E6E429",
"I. c #E8E735",
"U. c #878947",
"Y. c #8E9649",
"T. c #939945",
"R. c #8D8D56",
"E. c #91915B",
"W. c #9CA548",
"Q. c #9FA856",
"!. c #A4A442",
"~. c #A6AA4A",
"^. c #A7B64A",
"/. c #B6BA46",
"(. c #B5B44B",
"). c #A7AC54",
"_. c #A4A45C",
"`. c #AEAD5C",
"'. c #B0AF5C",
"]. c #ABB554",
"[. c #B5BC56",
"{. c #B4B35C",
"}. c #BBBB5B",
"|. c #9FA16B",
" X c #A7A865",
".X c #B6B966",
"XX c #BABC6B",
"oX c #AAAB73",
"OX c #B7B874",
"+X c #C1BF5E",
"@X c #B8C347",
"#X c #BBC052",
"$X c #BDC164",
"%X c #C8C842",
"&X c #C3C35D",
"*X c #CBCA5A",
"=X c #D0CF5D",
"-X c #DAD95C",
";X c #E0DF5C",
":X c #EAE947",
">X c #E8E758",
",X c #ECEB5C",
"<X c #C6C666",
"1X c #CBCB6B",
"2X c #D6D76B",
"3X c #C8CA77",
"4X c #D2D27B",
"5X c #E9E864",
"6X c #EEED76",
"7X c #F1F07B",
"8X c #D5D481",
"9X c #CBC999",
"0X c #D3D293",
"qX c #F2F189",
"wX c #F3F395",
"eX c #D6D3B1",
"rX c #F6F5AA",
"tX c #F8F7BA",
"yX c #E5DEC7",
"uX c #F1EED0",
"iX c #FCFCDD",
"pX c #FAEFEC",
"aX c #FCFCE7",
"sX c #FEFBF3",
"dX c #FFFFFC",
/* pixels */
"/ C p A N S C { Z.{ | W X.( M.M.W E | ' x Q ~ C ;.;.z ~ ( { o.o.W | | V C x / ' =.' ' K.A.{ M.X.Z +.4.*.f.H / ` Y A G H _ A H / ",
"m m K S m K Z W Z.Z.Q { { Q ( H.E Q { W x ( W A ' ;.C ' o.{  .Q Q p.A j g A { Q ~ ~ 5.H.Z.A i.$.D +.X.p.y.A L ` K G G J e.H / ' ",
"m Z H H C A A C 5.H.Q | ( W W H.^ { Q x Q c W W o.9.Q  .j.Q W E ;.;.V g W ' E ( A ~ 5.H.@.Z U / D =.x.M.G G G G N G N H [ H [ [ ",
") H Z H H u./ L  .-.{ | u.W W -.( | A C ' x @.W ( { Q  .;.~ ~ E X. .E D 5./ x ' C  .-.5.@.K %.B A ' $.H N N G G G N N L P ` ` / ",
"H r.) G G _ M.( Q 9.W =.M.X.Q o.{ o.Q @.@.E ( X.C W W ;.8XpXyX+X^ C E @.5.C C ;.Q _  .0. .Y %.V } n.W N G J G J F m G S ) P Z } ",
"A ] P P J / p.-.E Q A  .Q ;.Q { Q  .Q @.^ Q ( | W ~ /.<XeX'.6.:.~.9XK.-.-.C W ' @.V ( o. .&.Y p.M.} H G J F N J G J G G ] U Z ( ",
"H Z H P L / -.-.E A A W Q =.Q W W / W o.o.W o.W 0XpXyX!.b /.+X+X$X{.OX3X-.W W Q 9.W A { Q %.x.H.M.K L e.G m L J q.J m ] H P Z C ",
"G H w.H ] H ( o.A W C / (  .( W W ' Q { o.Q -.4XsX9Xv n (..X(.9XyXyX0X}..X@.W X.o.E V C Q D x.H.w.G ) / m F P f.P N M K H S N V ",
"H q./ ) / ] Q _ ( _ ( { } } ( { (  .o.W W ( -.8.}.c z 2.{.{.'.eXOXf g U 3X.X8.p.E A M j C D ;.5.` F ) F m K Y g.L m _ / M L P S ",
"X./ ( H / _ } } } ' X.} | } } } { / Q W W W 5.(.z z s ,.`. X X9XuX:.j C H 3XXX8.W A C h V W ~ =.Z J J N e.F K Y G K H y./ A ` S ",
"/ _ _ _ y.p.} | _ X.X.X.} X.} } _ / W W / W (.v z s a 2.<X`._.'.oXi j A W @.3XXX@.W A A A E Q ` Z H F J s.J Y K G K Z ( } H ` Z ",
"( } } X.o.X._ } } X.X.X.} X.X.( ( _ ( } ( /.i l s a E J.,X&X'.`.OXI ` ~ ` / 8.<XXX..( Q W A W H / ] F a.s.e.L q.N G N / | ( S x ",
"| | } X._ _ } X.X._ X.X.} X.X.} _  .( } 8.i 2 p a a c G.>X=X{.'.oX8X5.=.[ ' _ 3X{.$X{ { ' ] H G ] H J k.s.G L q.J N m A _ / j x ",
"o.{ ( } | } } } X.X.X.X.} ' X._ ( { { ..Y.< i d l v c ..K.<X+X{._.'.8X5.i.' { *X$X'./.( ( H G Y #.Z f.h.r.P d.G r.G m A A A g V ",
"{ ( { } } } } } } _ } _ _ ( } _ / { { {.4 7 l c E Q n.m.A.;X-X*X{.}.8X{ ' @.{ <X{.}.{.=.( A L &.U K c.c.P L ` N ) r.p W _ N p p ",
"W / ( } } _ } } } } } } { ( _ _ ( Q 3.i 6 v ! d E C.D.D.D.:X5X,X5X-X4X5.X.( 1X<X{.&X(.XX/ Z R Y L T l.c.F N A Z G r.H m G K P p ",
"_ } } } _ / _ _ } _ _ _ _ / _ (  .( T.3 a E E ^ V.S.S.D.D.L.,X,X,X5X5X8X( ( 1X+X}.'.}.~.^.L +.P K 1.4.z.B F F N N e.e.G G e.d.Y ",
"r.p.} _ _ [ y.u._ / / W _ ( ( ( ( 8.q 1 - z Q B.D.D.D.S.V.9.8.*X=X>X,X2X1X( 5.<XXXOX X/.).U L Z S U U R K N G A G P f.e.G G g.l.",
"[ / / [ [ ] ) y.y.J / A / / Z A Z >.4 % O * ! D.D.D.D.D.n.! ! /.&X=X,X-X1X3X3X|.OX .#X{.2.[.G G Z G J Y S A L Z e.F d.g.G G &.g.",
"A H ] ] ` H H i.i.r.A V / ) Z A 7.4 ; + O + ^ D.D.D.D.D.{ d g v (.&X5X;X_.E.E.R.oXS 3. X6.,.1.N ) t.Z #.P ) G L ] P P l.#.H L d.",
"Z L L L ] G M ` d.d.P h ) ) Z H T.2 * O + # n.D.D.S.D.D.l # - - 0 (.5X*XE.E.E.E.E.|. XE.6.v ].) w.J ) H K H q.U K G Y c.*.H A #.",
"G G G L ] G Z H h.f.f.Z _ f.H 3.q 1 + @ * % ..D.D.D.D.D.| * = = ; ! %X_.E.E.E.E.E.R.E.E.Y.c ,.x.G F a.i.G G w.) H H G l.l.+.Z H ",
"a.w.J e.A H Z P l.g.l.K e.d.K ~.2 = + @ @ # E S.D.S.D.S.S.Q 6 1 1 6 4 y E.E.E.E.E.E.E.E.y s v /.S N G f.h.J G t./ J Z &.l.#.Z Z ",
"r.r.e.B m Z A Y l.4.g.P r.f.1.i 2 @ & < @ + d m.D.D.D.D.S.F.B.m.n.n...~ 2.Y.E.E.E.E.E.R.q 5 z !.Y F N d.j.g.G e.r.H H +.=.#.H A ",
"G r.g.Z ) J Z #.d.$.$.P #.*.7.4 ; O @ $ O O 5 { V.D.D.D.S.F.D.D.D.D.D.D.D.C.5.T.U.R.u 0 1 1 g b 7.H H H c.l.g.L d.] H K [ [ ` G ",
"H ] ] ] J s.q.H [ [ [ L #.] W.3 * O O O O O % v 9.D.D.S.D.D.D.D.D.D.D.D.D.D.S.A.2.0 : - - = 8 z ].G H G 4.l.l.` #.d.H A r.r.` H ",
"G J ] d.G r.k.e.G / H L H H U.2 # o o O = # % a ! n.S.D.D.D.D.S.D.D.D.D.S.S.S.:X6X+X9 ; = - 1 z 6.L H G Y *.g.$.#.g.P A i.) ] G ",
"G q.J P L G f.j.P Z Z L ) *.q < @ + X X 1 : = 1 6 E 9.V.D.D.D.D.D.D.D.D.S.S.P.6XiXiX2X9 : ; ; d b v.J w.H ` $.[ ] *.` H [ H H H ",
"G ) G J G N #.l.4.S Z K ) 7.4 - @ = @   o # = ; # ; a v ..9.n.| ....n.S.D.D.I.,XuXdXiX*X6 ; - 8 v [.L ) t.) H ] ` #.P L ] G N N ",
"J w.G G G G U 4.*.L G J e.Q.1 @ o # o o . O 3 6 % O * = = 1 1 1 < - < i 9.D.I.,XqXdXdXtX2.2 < 3 c ].#.L ] h.#.G A P K ] L N G G ",
"] q.t.q.G H S $.] P Z ] P T.- o       . . # 6 6 = + 1 = % 1 1 ; - < < = 6 m.I.,X5XtXdXdX5X6 - 1 z !.Y K N G ] K M Z P r.S S m G ",
"#.J h.r.P G K [ ` A G #.Y Y.% o       .   X ; 1 # O @ + ; 6 E 6 = ; - - - z G.,X,X7XaXdXrXO.- ; l <.U H q.i.] U +.Z H e.N N N J ",
"L P r.e.#.K A P H N Y ] P u # .     o % $ . o $ % O @ $ 3 6 5 1 6 < = - = 7 Z.,X,XwXdXdXrXK.2 - d b b.a.r.H N %.$.` G e.G m N ] ",
"G P d.] P P G G Z Z K ] Z y % .     @ = * X . - ; % 3 3 5 3 : 3 9.i - = = 1 o.I.,XwXdXsXqX:Xf - d b @X[ Z Z Z K #.` G ] U m B Y ",
"t.G #.#.A H A G H Z N K P t # .   . X @ + X . + + ; 7 z 8.W.2 1 5 < = - < < n P.,X6XaXdXrX,X@.1 p v #XG H ] L A ` L Z L Y K B R ",
"s.q.] #.H H G ) J G H P +.r # .   X . O % * % * = = a N.qXaX8.< - - ; 2 < - v C.:X,XwXdXtXwXK.< 7 z .XH H H P K A H Z S P U S K ",
"s.t.J $.` / H r.) H H / P r #       . * = * * = 7 = 6 m.P.wXJ.1 - ; 1 6 1 - d B.I.,X,XqX7XuX1X; 7 n .XH / H G G Z Z M N K A Z K ",
"k.h.H ] [ H ] g.] H G G F r # . .   o = = * * ; z 8 3 Q V.D...< ; ; < 2 < 1 s B.G.:X,X,X,XuX1X- 7 z XXG H H H J H H H H Z K H H ",
"c.c.H J H H P ] P H H H t.r # O @   o = = * : 1 6 8 7 s ~ ( 6 1 1 : 3 : 1 4 s B.D.G.:X,X,X7X%X- 6 z XXA H ) w.) Z A H H / K %.I ",
"l.l.d.Z H G H ) ) H J G s.t $ X . . o = = 2 d z l c l 8 7 3 < 1 ; - < 1 6 6 d B.D.D.I.,X,X,X0.- 7 n .X' P ) H N M Z Z A H K I I ",
"U z.l.K G G G q.w.J G N r.u $ . @ # # = 1 g c c g 6 1 3 6 5 6 6 2 - = 1 6 6 z V.S.S.F.P.:XI.{ - 8 c .X] K w.w.H Z M M A Z k B M ",
"S #.*.*.A G G e.t.G J J J Y.$ O $ * $ - p g c 8 ; * * = 2 6 6 7 3 ; - ; 3 7 Q V.S.F.S.S.D.D.n - p v [.L Z H s.a.A k h H H k Z Z ",
"G ` #.f.P H H e.P J w.G J Q.$ + o + + ; s n d = * = * * = 2 5 1 1 ; - ; 2 a n.D.S.D.D.D.D.S.s - i n @XG M M [ [ #.h p H / Z Z Z ",
"H H ] ' ) r.H K e.a.J H J @X& + @ % % < l C a * * * = * = = ; = = ; ; 5 7 E V.D.D.D.D.S.D.B.5 ; l b l.A H M ` f.d.] M / w.Z H Z ",
"#.K Z P H r.H r.h.J K ] G b., % % = = 1 z c d - * = * = * = % # * = 1 8 l m.D.D.D.D.S.D.D.9.; 1 v <.D A ` K L f.h.f.G ) f.H H A ",
"P L P Z Z G t.h.J S P P L l.t # @ + O ; l c z 6 = # $ * = = = # % % 1 c m.F.S.D.D.S.D.D.S.g = 6 n !.k D I Z P l.l.l.K ] f.H H G ",
"K P r.S N #.j.d.G J H H L l.Q.% +     # d c c z 6 $ * * * * = % = 3 s Q m.V.D.D.D.S.D.D.n.1 - s c [.B k Z A Y l.l.g.P [ d.H Z ) ",
"S K ] N Y g.f.L #.G s.) K g.b.> # .   O 8 c c E c x s 8 6 5 6 a l z n c c Q 9.B.S.D.D.S.d - 1 z b z.G _ J Z +.$.$.$.P #.g.G / [ ",
"[ K U T l.#.G ] g.K t.a.d.] f.y $ O     < g n c c n c n c c n n c n c c c c c E Q 9.N.E : - 8 C !.e.] J s.) H [ [ [ L #.` H [ H ",
"H D U 3.4.K K e.d.#.J h.h.P ] ^.% $ .   O 6 l C c c c c c c c c c c c c c c c c n z i % @ - l v ^.] #.G r.k.r.G ) H P H H K P Z ",
"H ` %.4.T N P r.#.#.Z e.c.g.K H t % +     % 8 x c c c c n c c c c n c c c c c c z 6 % @ # < 8 ,.w.H ] P G f.j.] Z Z K ) ) K S h ",
"] $.g.3.S Z r.e.L L H G c.l.+.Z ^.> % O   + - 5 l c n c c c c c c c c c n n x d 3 % $ + - 3 0 7.) H H G F #.z.4.S N L ) A Z N G ",
"[ $.$.` Z S ) H ) w.G N z.l.&.Z K ~.% $ O X % = 1 8 l z c c C c n c c c z s 6 - # @ # # < 2 W.J w.H G G F U 4.*.L Z J ] N m N P ",
"[ ' #.H ) H Z ) _ J K Z %.Y S A F P T.% $ O o @ # @ % 6 8 d d g g d a 7 2 ; = + + # $ $ = W.J e.q.t.q.G G S #.] P G e.P m N U U ",
"[ [ ` H / G ] i.J H G G H r.a.) G d.S Y.> $ # o       # - < 1 1 ; ; = % + # % @ # % $ & W.G G Y H s.e.P H D ] ` A G #.Y N S 1.U ",
"w.] H / H r.i.) G N H r.h.r.H N U %.K m ^.e $ # # o . . # $ # + O O + + @ % # $ % % w 6.q.G G L Y r.e.Y K H ` H N Y ] U G Y R R ",
"r.H H L d.f.] A P g.g.f.] N N N Y L K S T 7.Y., $ $ $ + O O o o + # # # # % % $ , Y.3.Z ) Z N G L d.] ` P G G Z N L ] Z K ` ] #.",
"r.A L #.g.] K l.l.l.g.P Z A Z N P A Z K +.Y S 1.T.e & $ % $ $ % $ % $ % % & r T.b.#.A G q.N J t.G #.#.H H G G H G N L P H ] [ [ ",
"[ G ] $.$.P *.l.l.l.P G H H H H G G Z P #.@.L A F e.7.~.>.t r r r r p Y.^.7.L L [ [ L G e.G ) s.q.P #.H H H ) H G H P &.K H H ` ",
"L P ] +.L [ f.f.g.#.H J ) H H A Z H Z A ] ` D Z N G J h.) F H G &.l./.I ] #.H A r.w./ H r.P q.s.a.J [ ] / H [ ) H H H ` ] Z Z Z ",
") P P ` ` [ r.$.$.G G G H H H G H H H A H L D Z G N H h.r.N H G ` g.f.] #.*.L A r.) ` H d.P P k.h.J ] [ H ] $.] H H G G A A N Z ",
"] U L A H ` / H H J w.J G H ) w.) G H H H H M m A Z G h.d.G J w.G ` ` ] ` g.] H r.G H H *.#.K c.c.H H / H P ] P H G G t.H N G G ",
"H K Z Z G H e.r.h.r.H H ] P ) H N M M Z Z A / N Z N P #.#.S ] ) r.H G ] P #.L G L G Z Z #.#.S 4.l.d.Z G G H J w.H H G s.a.H H J ",
"G A Z S %.l.c.r.G G ] #.e.K w.w.G A M M G Z P #.Z N P g.Y Z #.K G e.P G A L J ) L N N G K L K U z.z.L G H G ) w.J H G t.s.a.H ) "
};
