/* XPM */
static char *_022931dde5145dfcbd16a4d86168a31fimXlBk6MicucKSe[] = {
/* columns rows colors chars-per-pixel */
"64 64 223 2 ",
"   c #171B15",
".  c #141D16",
"X  c #221C10",
"o  c #1A2513",
"O  c #2A350B",
"+  c #303213",
"@  c #101D22",
"#  c #182828",
"$  c #192C34",
"%  c #1A3039",
"&  c #252D2A",
"*  c #393C27",
"=  c #283635",
"-  c #473F17",
";  c #453E26",
":  c #423D30",
">  c #3B430C",
",  c #3D4B3A",
"<  c #4D5704",
"1  c #4E5113",
"2  c #6A541D",
"3  c #596604",
"4  c #667507",
"5  c #6C7E00",
"6  c #6C7D09",
"7  c #47452E",
"8  c #52532C",
"9  c #575935",
"0  c #665522",
"q  c #69573A",
"w  c #5B6129",
"e  c #61692B",
"r  c #6A7528",
"t  c #727B28",
"y  c #696736",
"u  c #786938",
"i  c #6B723B",
"p  c #747938",
"a  c #1F3540",
"s  c #233944",
"d  c #213A46",
"f  c #243E4A",
"g  c #2C434E",
"h  c #384849",
"j  c #294452",
"k  c #2E4D5D",
"l  c #314751",
"z  c #2F5060",
"x  c #345668",
"c  c #385D71",
"v  c #3D6377",
"b  c #4A524C",
"n  c #56564A",
"m  c #665C47",
"M  c #5B6255",
"N  c #6A6248",
"B  c #746848",
"V  c #7A6B4F",
"C  c #797743",
"Z  c #6A6C59",
"A  c #7C6C50",
"S  c #797858",
"D  c #415862",
"F  c #566669",
"G  c #41687D",
"H  c #6D756C",
"J  c #9B7F36",
"K  c #867549",
"L  c #8A7755",
"P  c #927E52",
"I  c #6E8100",
"U  c #6F8009",
"Y  c #728400",
"T  c #758900",
"R  c #798D00",
"E  c #728309",
"W  c #76890A",
"Q  c #7A8D0A",
"!  c #7D9200",
"~  c #7E920A",
"^  c #778514",
"/  c #7B8729",
"(  c #7C8439",
")  c #7F8151",
"_  c #75807B",
"`  c #829600",
"'  c #859B00",
"]  c #8A9E00",
"[  c #82950B",
"{  c #85990B",
"}  c #899E0B",
"|  c #859719",
" . c #86A402",
".. c #8CA400",
"X. c #8EAB00",
"o. c #8EA40C",
"O. c #8EAA0D",
"+. c #90A600",
"@. c #94AD00",
"#. c #9AAE00",
"$. c #91A50C",
"%. c #94AD0D",
"&. c #98AE0C",
"*. c #96B100",
"=. c #9BB400",
"-. c #9EB800",
";. c #96B10D",
":. c #9CB40D",
">. c #9FB80D",
",. c #8EA11A",
"<. c #97AD16",
"1. c #9DB316",
"2. c #9DB519",
"3. c #A2B600",
"4. c #A1BA00",
"5. c #A9BA00",
"6. c #A1B70D",
"7. c #A3BB0D",
"8. c #A8BE0D",
"9. c #A1B616",
"0. c #A4BB16",
"q. c #A9BE16",
"w. c #A2B61C",
"e. c #A5BA1C",
"r. c #AABD1C",
"t. c #879727",
"y. c #869135",
"u. c #A6873A",
"i. c #B08E3A",
"p. c #BA953C",
"a. c #97A823",
"s. c #A5B922",
"d. c #ABBD23",
"f. c #C39C3D",
"g. c #A9C100",
"h. c #A7C00D",
"j. c #ABC20D",
"k. c #ABC116",
"l. c #ADC21C",
"z. c #B1C618",
"x. c #AEC223",
"c. c #AEC02A",
"v. c #B2C623",
"b. c #B4C726",
"n. c #B4C632",
"m. c #9C8243",
"M. c #858459",
"N. c #988459",
"B. c #AB914E",
"V. c #888866",
"C. c #9C8864",
"Z. c #9C9167",
"A. c #969577",
"S. c #AB956A",
"D. c #B29C67",
"F. c #B1996D",
"G. c #A59772",
"H. c #B8A469",
"J. c #BAA677",
"K. c #C29D41",
"L. c #C5A34F",
"P. c #C4AC68",
"I. c #CDB269",
"U. c #C7B070",
"Y. c #CCB575",
"T. c #D4BC77",
"R. c #D5BD79",
"E. c #D7C07D",
"W. c #436C82",
"Q. c #457087",
"!. c #46728A",
"~. c #49748B",
"^. c #5A7B8C",
"/. c #4F7990",
"(. c #6C8B97",
"). c #8D938D",
"_. c #A9A389",
"`. c #B5AB87",
"'. c #B0AC97",
"]. c #B9B398",
"[. c #90A5A5",
"{. c #AEADA5",
"}. c #CBBB87",
"|. c #C8BB95",
" X c #C3BEA8",
".X c #B8C1B9",
"XX c #DAC484",
"oX c #D8C488",
"OX c #DDC98D",
"+X c #D9CA96",
"@X c #D7C99D",
"#X c #E1CE93",
"$X c #E2D096",
"%X c #E4D39B",
"&X c #C9C3AB",
"*X c #D6CBA9",
"=X c #DCD2AB",
"-X c #C9CAB6",
";X c #D8D3B6",
":X c #DBD5BB",
">X c #E5D5A1",
",X c #E9DBA9",
"<X c #E5DAB6",
"1X c #EEE2B4",
"2X c #EEE3BB",
"3X c #F1E6BB",
"4X c #F2E8BF",
"5X c #DDDAC4",
"6X c #DADCC8",
"7X c #E2DDC1",
"8X c #E9E3C9",
"9X c #F6EDCA",
"0X c #F9F0CE",
"qX c #ECEAD5",
"wX c #F2EED6",
"eX c #F6F1D6",
"rX c #FBF4D5",
"tX c #FDF6DA",
"yX c #FFF9DD",
"uX c #F3EFE1",
"iX c #F5F4E7",
"pX c #FFFCE0",
"aX c #FDFDF8",
/* pixels */
"3.5.3.5.5.#.3.8.r.7.7.6.:.;.9.:.*.4.7.=.4.8.=.=.*.;.>.=.h.g.>.1.k.v.8.z.k.4.7.l.4.4.=.*.:.;.*.5.-.k.7.4.4.4.-.-.;.*.*.;.=.:.#.] ",
"3.3.#.5.q.#.#.q.r.6.8.8.@.;.:.>.=.7.7.=.-.:.8.*.@.8.g.:.z.k.=.=.7.c.e.b.x.j.7.d.7.8.3.-.7.3.:.8.7.>.*.*.>.q.7.=.=.*.-.=.@.+.' ' ",
"#.3.3.5.q.0.z.q.7.q.v.r.;.:.*.7.7.7.3.3.7.-.k.7.:.k.z.h.x.r.8.h.h.k.0.d.r.0.k.e.d.v.4.j.k.7.=.8.7.*.=.=.>.>.-.-.#.@.6.7.&.6.&.} ",
"3.6.9.q.q.6.d.d.6.9.s.r.q.7.>.k.8.8.=.8.j.8.x.7.k.l.n.l.c.6.k.v.v.1.;.2.w.9.d.&.9.d.q.r.v.0.j.z.>.-.k.7.;.:.-.-.#.@.:.*.1.3.&.$.",
"q.6.;.e.e.1.w.w.1.<.9.e.9.7.0.0.8.0.6.q.v.d.e.j.0.0.e.e.e.q.r.e.d.1.%.1.1.9.w.;.;.9.0.e.n.q.b.x.o.$.x.>.7.>.*.h.7.3.4.4.3.;.*.@.",
"9.:.7.:.1.1.<.1.1.w.1.;.9.:.#.7.0.7.q.v.q.9.1.d.2.0.>.%.1.x.z.1.s.w.w.w.1.1.1.9.1.9.0.0.d.1.a.p A.A.i C ) ,.>.k.7.=.*.>.=.7.=.=.",
"3.=.:.7.:.1.1.9.9.9.2.6.0.r.7.7.z.8.d.b.k.q.e.d.1.;.1.O.;.<.| ,.{ <.1.1.9.0.1.9.1.q.v.k./ C ) &XyXtX:X8X;XS <.k.:.%.*.-.-.j.8.4.",
"=.7.=.0.:.;.:.:.k.q.9.7.s.t.0.k.b.z.q.r.v.v.d.q.7.:.9.o.t M.A.A.V.p ^ <.9.q.w.<.1.0.e.t._.tXtXyXyXyXyXyXyX&XN ( @.:.:.h.7.9.:.3.",
"=.7.4.:.:.h.:.;.r.l.7.s.h f y.k.r.r.9.e.d.e.q.r.b.9.6 V.;XeXpXpXpXqX].p | / p ) ) ( t S 8XyXyXyXyXyXyXyXyXtX7XA.t.*.=.7.7.=.*.*.",
"*.7.q.;.;.l.@.=.q.c.1.h v v , x.0.8.9.w.e.6.e.d.d.6 _.eXpXpXtXtXpXyXyX;XA.&X8XeXeX8X-X<XrXyXyXyXyXyXyXyXyXyXyX|.y 8.7.6.6.=.:.*.",
"-.7.9.%.%.w.;.7.h.l.9 x ~.v $ ( e.b.9.<./ t t t t M.qXtXpXtXtXpXyXyXyXyXyXyXyXyXyXyXyXyXeXeXyXyXyXyXyXyXyXtXyX@Xp 0.9.7.>.h.=.*.",
";.:.2.;.%.&.;.9.z.i z !.~.G v k h y.y.S ].:X7X7X X<XpXpXtXpXpXtXyXyXyXyXyXyXyXyXyXyXyXyXyX2X1XtXyXyXyXyXtX8XrX|.p 9.&.&.>.1.=.-.",
"*.;.;.1.1.;.:.1.t.g Q.~.~.~.~.~.G F '.wXpXpXpXpXpXpXtXyXtXpXtXpXyXyXyXyXyXyXyXyXyXyXtXyXyXrXOX$X9XyXyXyX4XXXOXP.y 7.;.%.=.>.-.7.",
" .;.;.;.:.;.e.;.7 x /.~.~.~.~.!.(.qXpXpXtXpXtXtXtXpXyXyXpXtXpXtXyXyXyXyXyXyXyXtXyXyXyXyXyXyX,XT.E.1X0X%XR.T.T.P / *.;.#.=.>.7.>.",
";.;.;.;.q.9.0.1.& c ~.~.~.~.!./.-XpXpXtXpXtXtXpXtXpXyXtXtXpXtXpXyXyXyXyXyXyXyXyXyXtXyXtXyXyX0X>X+XoXXXE.T.T.C t *.=.*.*.>.-.7.>.",
":.>.;.>.e.1.1.2.# k Q.~.!.!.Q.(.qXpXtXpXtXpXpXtXpXpXtXpXpXtXpXtXyXyXyXyXtXyXtXyXyXyXyXyXyXyXyXyXrX9X%XR.R.D.y :.3.4.*.=.:.=.:.-.",
"*.>.>.>.2.;.O.2.* a v !.~.!.~.[.tXyXyXyXyXyXyXyXpXtXpXtXpXtXtXpXyXtXyXtXtXyXyXyXyXyXyXyXyXyXyXyXyXyXyX<XH.N t.3.=.q.7.3.3.4.4.=.",
"*.;.O.;.;.;.;.O./ # f z c ^.[.6XyXyXyXyXyXyXyXyXtXpXtXpXtXpXpXtXyXyXyXyXyXyXyXyXyXyXyXyXyXyXyXyXyXyXyXrXS / =.=.7.6.=.*.;.7.=.8.",
"*.*.X.X.X.%.O.O.%.w $ f _ 6XyXyXyXyXyXyXyXyXyXyXpXtXyXiXpXtXpXpXyXyXyXyXyXyXyXyXyXyXyXyXyXyXyXyXyXyXyXyX|.p -.-.:.6.;.%.*.4.=.j.",
"X.*.*.>.*.X.X.;.=.@.8 M wXpXyXyXyXyXyXyXyXyXyXyXtXpXtXtXtXpXpXtXyXyXyXyXyXyXyXyXyXyXtXyXyXyXyXyXyXyXyXyX<Xy ;.7.=.*.:.:.>.h.7.9.",
":.*.=.:.*.*.;.;.=.4.p  XpXpXtXpXyXyXyXyXyXyXyXyXpXtXpXtXpXtXpXtXyXyXyXyXyXyXyXyXyXyXyXyXyXyXyXyXyXyXyXyX%XK a.7.-.=.-.=.=.7.7.*.",
"*.=.*.*.;.X.*.:.3.1.V.tXtXtXpXtXyXyXyXyXyXyXyXyXtXpXtXpXtXpXtXpXyXyXyXyXyXyXyXyXyXyXtXyXyXyXyXyXyXyXrX>XE.K | 6.4.4.j.h.4.7.>.=.",
">.h.>.*.:.;.;.=.4.y.'.pXpXtXtXpXyXyXyXyXyXyXyXyXpXtXpXtXpXtXpXtXyXyXyXyXyXyXyXyXyXyXyXyXyXyXyXyXyXtX%XT.E.C | :.4.7.7.k.7.7.>.h.",
":.h.7.=.6.=.-.>.=.p  XpXtXpXpXtXyXyXyXyXyXyXyXyXtXpXtXpXtXpXtXpXyXyXyXyXyXyXyXyXyXyXyXyXeXyXyXyXyXyX0X%XI.y :.6.:.>.-.>.:.=.>.1.",
">.7.7.-.=.7.4.7.=.N :XyXtXpXtXpXyXyXyXyXtXpXtXpXtXpXtXpXtXpXtXtXyXyXyXyXyXyXyXyXyXtX7X6X1XrXpXyXyXyXyXtXG.t *.*.:.:.=.*.*.%.=.:.",
"=.7.=.*.*.:.=.7.5.y 7XyXpXtXpXtXyXyXyXtXpXtXpXtXpXtXpXtXpXtXpXpXyX9X3XtXyXyXyXyX2X(.D F H {.8XyXyXwXrXyX'./ *.*.@. .@.@.;.*.*.-.",
"7.=.:.;.*.-.4.7.h.w =XyXtXpXtXpXyXyXyXyXtXpXtXpXpXtXpXtXtXpX8X*X|.J.U.3XpXpXyX5XF k G Q.W.W.^..X.X(.(.wX=Xy *.*.X.X.;.*.=.*.=.-.",
"7.=.=.=.*.7.h.>.*.Z qXyXpXtXpXtXyXyXyXyXpXtXpXtXtXpXtXpXtX*XJ.F.D.S.N.J.0XpXuXH j Q././.!.!.!.~./.!.v ).,XB ,.7.7.-.=.4.3.=.=.=.",
":.-.4.4.-.:.0.*.| ).tXpXyXyXpXpXyXyXyXyXyXyXtXpXpXtXyXpX*XS.F.F.F.F.S.P }.9X;Xl k !.~.~.~.~.~.!.~.~.v z Y.K t.>.0.:.=.>.=.8.-.-.",
":.4.4.k.7.7.7.-.y.&XpXpXyXyXtXpXyXyXtXyXyXyXpXtXtXpXyX7XC.S.F.F.F.F.F.L C.E.G.f z ~.!.~.~.~.!.~.~.~.x h U.K a.9.9.:.:.4.=.j.8.4.",
":.7.7.k.8.-.:.7.p :XpXtXyXyXyXtXyXyXyXyXyXyXyXpXpXtXtX].L F.F.F.F.F.F.L P U.Z.f j v !./.~.!.~.!.~.Q.l b U.u <.>.:.*.:.8.7.>.*.=.",
"0.>.7.7.:.;.;.7.C *XtXpXyXyXyXyXyXyXyXyXyXyXyXtXtXpXwXC.C.F.F.F.F.F.C.L G.T.}.H d j x v Q.!.!.!.W.z d S H.i 9.7.-.=.=.>.7.=.*.*.",
"=.4.7.6.;.;.*.>.p J.4XrXyXyXyXyXyXyXyXyXyXyXyXtX9XpX:XL C.F.F.F.F.S.C._.*X}.$X+XH g a j j z z k j f h J.K t.:.-.h.j.4.7.:.-.:.*.",
"7.q.:.*.;.;.*.@.| V.%X,XtXyXyXyXyXyXyXyXyXyXyXrX,XrX XL P F.F.F.S.`.|.;X;XoX$X%X%X_.F g d a d f f b S.N.p :.7.7.7.k.7.-.7.h.=.*.",
"6.7.3.=.@.*.=.X.$.i }.,XyXyXyXyXyXyXyXyXyXyXyX0X>X2X|.L L P K m `.;X7X7X*XOX%X3X0XyX8X].) M M Z Z.U.N.e 3.7.>.7.8.7.:.*.:.1.=.-.",
":.:.4.=.#.*.:.*.;.| B =XyXyXyXyXyXyXyXyXyXyXeX,X%X%X|.}.: X X : 5XuXaXqX*XOX%XrXyXyXtXrX2X>XoXY.D.N.N w 4.7.=.=.>.:.%.;.*.-.-.>.",
":.:.=.q.4.=.3.4.6.*.y.A <XpXpXpXyXyXyXyXtX9X%X%X%X%X%X;XH X X ).aXaXaX8XoX+X,XtXyXyXyXyXyX0XOXJ.V B V : $.3.7.8.=.#.:.;.=.-.7.-.",
"=.=.7.6.:.*.:.7.*.4.=.y }.1X9XrXtXeX0X8X,X%X$X%X%X%X#X;XqX{.{.aXaXwX;X+X+X%X9XyXyXpXpXtX4XOXT.P.A V K ; | 1.:.8.=.*.#.@.-.-.7.7.",
"=.-.6.:.*.*.*.-.>.h.g./ Z.%X%X>X,X,X%X%X%X%X%X%X%X%X%X*XiXaXaXwX<XoXT.E.E.>XtXtXyX0X4X$XT.T.R.D.V V V 9 r &.:.=.=.3.*.*.:.*.:.:.",
"-.8.=.*.:.:.>.h.:.1.*.t.K %X%X%X%X%X%X%X%X%X%X%X%X%X%X@X:X6X=X+XOXR.T.T.T.XXOX$X#XXXR.T.T.T.T.N.V V A m 8 @.$.@.#.7.7.3.3.4.4.:.",
"8.8.=.-.=.=.:.9.1.@.X.,.0 P.%X%X%X%X%X%X%X%X%X%X%X%X%X%X+X+X$X#XR.T.T.T.T.T.T.T.T.T.T.T.T.T.P.L V V V N 1 +.o.@.*.6.:.*.*.7.=.:.",
";.>.-.4.j.4.=.1.%...o.,.1 u.I.oX%X%X%X%X%X%X%X%X%X%X%X%X%X%X#XE.R.T.T.T.T.T.T.T.T.T.T.T.R.Y.L A V V V N 7 } o.@.@.%.#.%.@.4.-.7.",
";.*.4.7.q.k.>.:.;.%.] ' / 0 i.L.#X%X%X%X%X%X%X%X%X%X%X%X%X#XE.T.T.T.T.R.T.T.T.T.T.T.T.T.P.P A A V V V b 1 { ..+.%.+.&.&.:.7.7.>.",
"7.-.=.8.7.6.;.$.<.o.] ] { 4 2 i.T.T.XX#X$X%X%X%X%X%X%X#XXXT.T.T.T.T.T.T.T.T.I.I.I.I.I.P q N A A V B n % 1 ' { %.+.+.#.@.*.:.>.@.",
"#.7.-.=.:.@.X.o.$.$...} { ` 3 1 B.T.T.T.T.XXXXOXXXXXR.T.T.T.T.T.T.T.T.T.T.T.K.f.K.i.u & & n N m n h j $ 3 ` ! o.o.@.=.8.4.6.:.*.",
"@.6.*.*.*.%.o...X.@...{ ` R 4 o = D.E.T.T.T.T.E.T.T.R.E.T.T.T.R.T.T.T.T.T.I.p.J 2 - @ # $ % f f f d f + E [ ' ' ..&.&.9.:.7.7.h.",
"=.3.-.4.@.+.+.X.@.$.$.` ~ [ Q < o 7 H.T.T.T.T.T.T.T.T.T.R.T.T.T.T.T.T.T.I.B.P ; 8 r X @ $ d f f j % # 3 T R } o.] %.:.:.>.=.:.0.",
"*.=.7.=.3.#.@.%.O.%.o.` T ~ Q R 4 O * K P.T.T.E.T.I.B.u P.R.R.R.R.R.T.U.L.u.K * e W r +   $ % $ # O 4 T T T { o...@.%.;.;.@.=.:.",
"%.*.-.=.h.g.-.:.*.@.} ] ~ R R Q Q ^ 4 3 1 u m.B.J 0 1 - 0 B.I.I.I.I.L.f.i.K m # e ^ U 6 4 < > < 3 I T ~ [ ` ..X.+.$.@.X.$.&.=.=.",
":.:.8.>.2.>.*.:.:.%...] [ ' ! ! Q Q W Y 6 4 < < < 3 4 5 < 1 i.p.p.p.p.P B n g @ 4 U U 6 U U I T I T R [ { ' ..&.#.=.#.@.:.:.=.7.",
"*.=.>.7.*.=.*.:.1.%.+.' ~ [ { ! Q E Y 6 6 E 5 6 E 6 5 5 4 o & : 8 9 n b f f f O U 6 6 6 U U E Q Q ! ! [ ` ' ..#.*.8.4.4.7.*.=.4.",
"4.4.>.>.*.:.k.;.&.:.:.] ' { { ! R T E 6 5 Y T Y 6 5 5 6 4 > @ # % f f f f f $ < 5 I U I T T R Q ! ` { ` } o.X.:.:.0.7.3.3.7.7.4.",
"k.8.7.>.=.;.s.X.%.0.;.;.@...] ..` R T T T T Q W Y 6 E Y I 4 O   % d f f d # 1 6 I I Y T R [ ~ ` { $.] ] +.+.@.:.8.:.*.*.6.7.7.=.",
"7.:.-.h.:.;.1.O.%.:.:.;.%...o.o.] ..] ` [ ` Q W Y Y E E T T W < + # # & O 3 6 I T I I E Q ! { ` } ,.$.@.#.=.=.:.>.=.:.*.:.6.3.4.",
"=.=.;.l.9.:.:.1.%.%.O.%.1.O.X.@.$.&.+.$.} ' ! Q W E T T W W [ [ W 4 4 4 Y E E T Q [ R [ ! ' } ]  .o.%.*.:.q.7.7.>.4.6.*.:.:.=.*.",
"*.:.>.:.1.9.;.1.%.O.%.' %.#.;.:.&.&.+.+.$.$.} ` ! { ` R W { [ [ R Q [ R ` R R ` { } ' ` } o...+.X.$.<.6.7.q.7.=.>.0.=.=.*.&.3.=.",
":.;.O.;.>.s.>.>.%.:.*.X.X.*.;.>.>.X.X.@.%.&.+...' [ { } ! { { ! ` ` { { { { ] ] $...' ' ..@.&.:.#.:.:.=.7.6.;.;.:.:.:.7.7.=.-.7.",
"%.:.*.>.0.1.e.e.:.;.*.*.-.-.*.>.*.*.;.*.&.%.#.@.....$.$.X.....o.} ....X.%...+.%.+.@.%.$.@.*.&.6.*.3.6.6.6.=.;.%.=.=.=.:.>.=.4.:.",
";.>.>.k.1.;.1.1.>.:.>.:.>.;.*.*.=.7.=.=.:.=.=.:.6.=.=.=.-.@.X.@.@.@.7.:.:.=.7.6.*.=.*.@.:.7.:.*.@.=.7.q.=.*.=.*.-.>.7.7.7.-.8.=.",
">.>.>.1.;.:.O.;.;.;.*.*.:.*.X. .%.:.=.=.:.=.3.7.6.=.*.:.7.=.-.=.*.9.7.7.:.*.6.6.-.4.g.-.=.0.=.*.=.*.:.7.4.=.@.@.>.=.7.>.*.>.8.=.",
"h.h.>.;.h.;.%.O.O.X.*.*.:.*.*.X.*.:.:.7.7.-.-.6.:.#.@.=.-.7.j.4.7.:.=.:.*.%.;.3.7.7.k.8.7.>.-.7.;.=.;.=.=.>.8.=.6.*.:.:.*.;.6.4.",
":.e.;.%.s.O.X.X.*.X.*.*.;.;.;.*.*.7.4.7.=.-.7.=.*.7.;.7.:.0.k.=.3.7.8.7.*.:.-.=.>.7.8.8.=.>.0.:.=.=.*.4.=.7.l.8.3.h.8.=.;.j.:.7.",
"7.9.;.O.1.%.;.>.-.*.*.*.X.X.*.*.=.7.7.7.6.8.-.=.=.h.7.:.7.k.q.*.:.8.8.=.=.@.:.7.4.7.>.=.=.:.7.:.>.7.8.j.=.>.r.e.>.v.8.8.7.l.7.>.",
";.<.1.1.;.;.;.l.;.-.-.;. .X.=.-.>.-.:.:.*.>.>.4.4.j.l.8.k.k.e.7.8.k.:.3.=.@.@.7.=.*.;.>.7.=.=.j.8.:.k.q.*.>.7.d.q.n.l.k.7.d.8.z."
};
