/* XPM */
static char *a93b52d179104735be216dd9be208160wNtnWmpbwGr1zgyC[] = {
/* columns rows colors chars-per-pixel */
"64 64 254 2 ",
"   c #171B15",
".  c #22160E",
"X  c #271C14",
"o  c #2C2216",
"O  c #2E2319",
"+  c #282518",
"@  c #2E2B1A",
"#  c #31261B",
"$  c #352C19",
"%  c #342A1D",
"&  c #303114",
"*  c #37371B",
"=  c #33351C",
"-  c #342D23",
";  c #3A2D22",
":  c #2C352C",
">  c #2A3828",
",  c #3B3223",
"<  c #393926",
"1  c #443E19",
"2  c #423627",
"3  c #453B2A",
"4  c #4A3C2D",
"5  c #483D31",
"6  c #3C431F",
"7  c #1A443F",
"8  c #364526",
"9  c #2D4C36",
"0  c #28473A",
"q  c #374939",
"w  c #484619",
"e  c #4C5413",
"r  c #59591B",
"t  c #625C1D",
"y  c #576C0E",
"u  c #676815",
"i  c #697413",
"p  c #767916",
"a  c #49432A",
"s  c #4B582A",
"d  c #595627",
"f  c #4B4433",
"g  c #514533",
"h  c #584F33",
"j  c #594C39",
"k  c #635C24",
"l  c #62583B",
"z  c #586B2A",
"x  c #686825",
"c  c #69712E",
"v  c #7B7725",
"b  c #7B7A37",
"n  c #19514C",
"m  c #274D44",
"M  c #285746",
"N  c #36584A",
"B  c #1F6759",
"V  c #2B6456",
"C  c #2C695A",
"Z  c #2F7469",
"A  c #665844",
"S  c #516643",
"D  c #70684C",
"F  c #75684D",
"G  c #786B57",
"H  c #7C6C54",
"J  c #7D725A",
"K  c #736C66",
"L  c #837C2C",
"P  c #837A4C",
"I  c #85775A",
"U  c #8C7D63",
"Y  c #897C68",
"T  c #897E74",
"R  c #788C0E",
"E  c #7B9B27",
"W  c #6B8733",
"Q  c #769C37",
"!  c #2D8379",
"~  c #6D9547",
"^  c #769C45",
"/  c #76A24A",
"(  c #6FA457",
")  c #76A85A",
"_  c #789871",
"`  c #6DAA67",
"'  c #72AD65",
"]  c #73AE72",
"[  c #76B578",
"{  c #889A0B",
"}  c #939E0A",
"|  c #868719",
" . c #908C1F",
".. c #879A17",
"X. c #8C9C1C",
"o. c #979B16",
"O. c #A09E1B",
"+. c #8CA40E",
"@. c #9BA605",
"#. c #9CAB05",
"$. c #93A50A",
"%. c #98A409",
"&. c #94AB0D",
"*. c #9CAD0A",
"=. c #9BB305",
"-. c #97B10E",
";. c #9CB40E",
":. c #9FB80E",
">. c #8CA313",
",. c #8AA319",
"<. c #98A717",
"1. c #95AD14",
"2. c #9AAE1B",
"3. c #97B112",
"4. c #9CB412",
"5. c #9FB813",
"6. c #9DB31C",
"7. c #9FB818",
"8. c #A3AC05",
"9. c #A6AC09",
"0. c #A4AC0A",
"q. c #AAAE0C",
"w. c #A3B105",
"e. c #AAB305",
"r. c #A4B30C",
"t. c #ACB20C",
"y. c #A3B90E",
"u. c #ACB90E",
"i. c #B1B60C",
"p. c #B4B90D",
"a. c #B8BC0D",
"s. c #A6A917",
"d. c #ABAD12",
"f. c #B3AF1A",
"g. c #A2B613",
"h. c #ACB312",
"j. c #A2BA14",
"k. c #ABBA13",
"l. c #A1B51C",
"z. c #ABB11B",
"x. c #A4BA1B",
"c. c #AABD1D",
"v. c #B2B413",
"b. c #B4BA13",
"n. c #BABC13",
"m. c #B4B21C",
"M. c #B5BB1A",
"N. c #BCBC1A",
"B. c #859925",
"V. c #878937",
"C. c #859735",
"Z. c #919431",
"A. c #AA9C35",
"S. c #87A129",
"D. c #9AA827",
"F. c #9EB320",
"G. c #9DA437",
"H. c #A5A827",
"J. c #A2B521",
"K. c #A6BA23",
"L. c #AABD23",
"P. c #AAB628",
"I. c #B7B627",
"U. c #A8AA36",
"Y. c #B5AD38",
"T. c #AABA36",
"R. c #B9B438",
"E. c #C0BB1E",
"W. c #C1BB27",
"Q. c #C5BB33",
"!. c #ABC11C",
"~. c #BCC11A",
"^. c #ADC124",
"/. c #AFC12A",
"(. c #B0C12F",
"). c #C1C117",
"_. c #8A8549",
"`. c #938849",
"'. c #80904D",
"]. c #989749",
"[. c #8C8353",
"{. c #89865B",
"}. c #968D58",
"|. c #999359",
" X c #A39E40",
".X c #A3985A",
"XX c #8FA246",
"oX c #B0B04B",
"OX c #AAA657",
"+X c #8C8E6C",
"@X c #908265",
"#X c #93846D",
"$X c #9D9462",
"%X c #98976A",
"&X c #938574",
"*X c #9C8B75",
"=X c #968979",
"-X c #9A8D7D",
";X c #879573",
":X c #979777",
">X c #A19562",
",X c #A49A65",
"<X c #A89E68",
"1X c #A2937D",
"2X c #89AD7D",
"3X c #ABA565",
"4X c #ADA46C",
"5X c #B0A66E",
"6X c #B2AA6E",
"7X c #A4A372",
"8X c #B1A670",
"9X c #B5AB73",
"0X c #B9AE75",
"qX c #BBB476",
"wX c #BDB57A",
"eX c #C5AA47",
"rX c #CAB449",
"tX c #D3B749",
"yX c #CDB555",
"uX c #C1BA7E",
"iX c #7AAE8E",
"pX c #75BB85",
"aX c #78C18D",
"sX c #7AC698",
"dX c #7DCEA4",
"fX c #939482",
"gX c #9D9386",
"hX c #A59886",
"jX c #A69C92",
"kX c #83AE8E",
"lX c #B3A595",
"zX c #8ABBAB",
"xX c #C5A3A1",
"cX c #89C591",
"vX c #87C89B",
"bX c #92CDA4",
"nX c #8FD1A8",
"mX c #8AD4AD",
"MX c #88D9B8",
"NX c #97D9B7",
"BX c #A7DCB7",
"VX c #9FE0BE",
"CX c #AEE1BE",
"ZX c #B7E2BD",
"AX c #CCD08C",
"SX c #D4C3B4",
"DX c #C3E5BE",
"FX c #CCA4C1",
"GX c #A7D7C7",
"HX c #B4DCD5",
"JX c #B6E3C5",
"KX c #C7E6C1",
"LX c #D8E9C2",
"PX c #E3E9C2",
/* pixels */
"v t.v.q.d.f.i.q.v.v.i.n.f.n.n.m.W.Q.W.f.f.f.f.I.W.Q.W.f.I.SXFXFXAXA.H.eXeXQ.tXtX XeXtXtXtXeXyXyXoXH.-.-.:.j.y.5.3.3.3.4.j.x.j.5.",
"L s.d.q.9.d.d.q.v.f.f.n.v.v.E.n.E.I.W.n.d.f.f.v.m.f.f.s.t.R.xXSXI.d.s.Y.Y.rXeXeXeXeXeXyXH.P.I.T.k.;.-.4.j.7.:.5.j.-.5.4.5.4.-.4.",
"O.d.v.d.f.O.O.%.q.o.o.O.q.d.d.d.m.m.m.W.n.E.p.a.n.i.f.i.i.q.U.OXo.o.<.o.A.A.Q.yXrXeXR.R.H.2.l.H.7.:.y.;.5.4.-.4.j.;.*.4.-.-.3.-.",
"m.N.W.O.o.oXAXP.q.} } 9.d.q.9.9.9.f.n.E.E.W.a.a.n.a.i.s.Z.V.F K Y I U @XI P L U A.H.c.L.s.4.4.s.3.y.!.j.j.5.-.4.4.j.5.;.r.-.-.-.",
"f.f.s. .u Z.OXo.9.i.i.i.i.i.q.q.9.d.I.W.d.f.n.v.d.O.`.#X*XY K A K T -XfX*X-X#XI I P V.>.5.k.;.3.5.:.j.5.3.7.;.5.:.5.4.-.5.:.:.j.",
"d.s.O. .x u R { &.r.w.9.q.i.i.q.9.d.f.m.d.q.f.z.V.U T =XT T Y K K K A A A j j g l H G F b ,.4.3.;.;.;.3.3.5.5.4.5.;.-.-.5.j.5.:.",
"f.s.o.| k u } &.$.%.%.@.8.q.q.i.9.t.d.s.q.f.o.I *X*X*XU T *XU j - O : - ; 2 2 ; 2 4 4 f f a R 2.;.5.;.;.3.j.j.4.j.:.;.;.5.4.-.-.",
"s.o.O.L h | } #.#.#.8.8.9.9.@.9.*.0.9.0.0. .I *X*X*XU *X*XU 4 # : : : : # ; ; ; ; , % % ; a N c >.:.j.j.5.4.4.3.4.:.!.j.j.j.4.1.",
"{ L | x R R R $.*.=.r.=.0.@.#.@.$.*.=.q.Z.-X-X&XY T *XhXU % X + : B m : o % ; % ; # O O @ m m N z 6.5.3.4.x.;.-.4.5.j.g.4.l.3.D.",
"{ X.,.>.,.+.&.-.4.g.g.5.4.#.%.w.w.w.%.V.hXlXlXlXlX1XY T 5 o + > 7 V m : % % ; - X O X O - m m m q r 1.3.3.g.;.-.4.;.4.3.1.2.*.g.",
"3.1.+.&.+.&.1.5.5.-.4.j.;.*.=.r.w.=.V.gXjXgXhX1XhXhXJ g 2 O + 0 M M : + # % ; % . + O - q M V m - O R 5.;.;.;.j.4.g.;.3.<.2.P.Y.",
"4.1.1.3.3.5.;.j.4.-.4.4.;.&.-.;.;.B.-XjXgX-XhXhXhXH 4 3 , @ & 9 9 > @ + % 2 $ @ . X @ q C V V q , - w h.j.:.5.4.2.3.l.U.U.Y.yXyX",
"d.4.2.;.5.x.j.4.5.4.3.4.j.;.4.y.<.{.jXjX-X*X1X1XH 4 ; 3 , = = 8 8 8 r u p i p u * X X : N V q < , = , | g.y.r.-.3.:.P.Y.H.oXyXyX",
"h.*.g.h.y.y.4.3.7.;.5.;.j.-.-.;.V.gXjXgX*X*X*XI g % X 2 * = = 6 c Q C.S.X.} } @.} w # X + < , * , , 2 h <.j.5.:.:.4.j.2.1.U.tXtX",
"r.r.h.-.-.3.3.3.;.5.:.:.4.3.4.1.U hXgX&X#X*XY g , O X $ < = s ~ / / ^ Q B...{ { *.| $ o o o , < < , , , | g.5.j.!.j.j.6.P.eXyXyX",
"r.*.;.g.;.;.;.-.5.j.:.j.;.;.3.V.T =XgX-XU U l 3 % O % % , s ( ( ` ( ( / C.B.X.$.*.z.e # O X + , , - - - r g.5.j.j.-.6.s.R.yXyXrX",
"0.g.r.4.4.;.4.y.;.7.3.5.j.!.<.Y fX-X-XY #XH f V 0 + & + s / ` ] [ [ ] ) / C.X.s.9.i.u o # # X O - - , < a +.j.4.3.-.w.r.z.I.P.J.",
"&.%.r.-.-.;.5.j.y.j.4.4.:.5.V.&X=XT U U I j q M 7 & + s ~ ( ] aXsXsXaX[ ) ^ B.D.9.e.L $ # # o . X , < 5 8 R j.y.-.*.y.t.w.h.g.2.",
"8.#.=.=.r.r.j.4.-.4.j.;.;.<.P Y U U @XU F a f m M 8 8 Q ) [ aXdXdXdXsXaX' XXQ ,.o.d.L $ ; # O . X 2 f N f c 4.;.u.r.r.0.0.h.r.r.",
"w.w.w.w.@.&.4.5.4.4.4.;.&.B.I U U U U I j q V V B 9 W ) [ aXsXMXMXMXmXcX[ ) C.B.} s. .% 2 # # X X < N C ! S y.r.u.i.9.9.@.#.&.r.",
"=.-.4.r.5.5.7.7.;.3.;.j.*.P I I I I I F f Z M M 9 z ~ ' aXvXmXMXMXMXVXdX[ ) S.D.s.s.| 2 2 ; ; o X q Z Z ! S d.9.w.9.t.t.8.8.%.-.",
"k.y.5.5.5.3.3.3.5.4.:.5...F I I I H I A f N 8 8 6 W ( pXvXnXBXBXBXVXMXsXaXXXXXS.o.<.p 4 4 4 ; O . V Z Z m s 0.q.e.i.t.i.9.w.w.w.",
"j.;.4.j.;.3.;.5.5.:.g.;.V.H G G H P H l 4 8 = & s / ' cXbXNXCXZXCXBXmXvXpX) ^ B.o.o.u 4 4 4 2 # X Z C m - 1 d.e.t.t.8.9.t.w.=.w.",
"k.;.4.y.;.&.;.5.4.4.j.3._.-X+XJ F H F g 4 8 & 8 W ) pXcXbXZXZXJXZXCXBXbX2X) ^ B.X.o.t 4 4 4 4 % X q m - - 1 9.i.e.t.9.@.%.&.-.#.",
"k.r.g.g.j.-.;.;.;.3.5.,.U 1XgX-XY G A 3 3 < = 8 Q ' kXbXBXZXDXLXKXDXBXcX2X` XXQ C.'.h 4 4 4 4 - . & % # # e t.i.9.9.0.#.8.=.#.#.",
"u.u.u.r.5.;.4.5.j.;.g.V.#X1X-X-XgXT I 5 3 , = s / ] vXnXCXDXLXPXLXDXBXbX2XXX^ +X%X{.4 4 4 4 f a o o # $ # l OXG.0.9.8.i.e.w.#.&.",
"y.k.;.4.-.3.4.5.j.y.4._.*XU U Y #XY A 5 f a < c ) [ vXNXCXKXLXPXLXDXBXbX[ _ _ ;X%XD 5 a 4 r d i a & & # # I 4X,X].o.t.9.t.w.u.;.",
"j.j.4.j.;.;.4.x.3.-.1.I *X#XU U U U 4 4 3 f j Q ) aXvXNXCXKXLXPXLXDXBXbXkXiX:X2X:XH 3 a w u R R i y e # 3 ,X8X3X<X}.H.9.#.&.&.r.",
"4.3.-.5.y.!.j.5.:.;.B.I #X@XU U U I 4 2 # 4 h Q ) pXdXMXVXJXKXLXKXHXGXzXkXiX;X:X7X%X{.c y y y R R R 6 * P 4X9X6X<X}.`.<.*.@.@.*.",
";.&.4.4.5.j.5.5.5.;.| Y U U I Y U A 4 # O 4 d ^ ) [ dXMXVXZXDXZXHXHXGXzXkXfX;X;X%X7X3XB.,.y y 0.R y y E 6X6X8X9X,X[.[._.G.8.w.=.",
"r.;.4.;.:.4.3.3.7.5.V.I H I I I U l 2 . . 2 x Q ) [ sXdXNXVXCXCXGXGXbXzXiX_ _ =X%X%X7X6X6X].c X.R r y { XX9X3X,X}.[.[.`.6XOX*.=.",
"j.4.4.:.:.-.3.4.5.5.b G G H H I I 4 # . . O c Q ( ' aXdXMXNXNXVXNXbXzXiXkXfX;X+X+X%X$X$X<X|.^ F c c i R ,.4X<X}.}.}.[.}.9X0XD.g.",
"4.r.-.:.j.y.j.j.g.h.b H F F F I F 4 X . . o R E ( ` [ sXdXmXmXmXvXkXiX_ kXkX+X+X{.$X|.3X3X.X.XP ]..X}._.`.>X,X,X|.I P |.OXG.3.j.",
"*.y.3.j.5.-.k.j.;.d.l A A D D F j % .   . @ E E Q ( ` [ aXsXsXsXsXpX] _ _ ;X+X{.+X$X,X6X6X<X|.$X8X8X<X|.>X$X,X,X|.[.Z.D.5.5.j.j.",
"u.t.y.j.;.;.j.b.p.z.h j A A A A g -   : n 8 E E Q / ( ] [ pXpXpX] ' ` _ ~ {.%X+X%X3X4X0XqX5X<X<X8X8X8X<X>X|.,X.X|.Z.G.4.j.j.j.j.",
"h.#.i.y.j.j.k.h.~.s.h 5 j A j l 3 - 7 7 n s ....E Q / ( ` ` ` ] ` ( ^ ^ Q '.+X%X%X|.6XqXwX4X<X4X0X8X8X4X,X>X|.].<.g.j.j.4.j.5.3.",
"w.*.9.9.g.j.M.h.t.o.a 4 4 g g j < n V 7 0 z +.,.E E Q / ^ ( ( ( / / Q Q E E C.].G.,.D.3X3X|.8X8X8X0X6XOXOXOXD.4.j.j.4.;.k.u.;.!.",
"8.q.@.$.*.g.q.q.w.o.3 2 3 f g g N 7 V m 8 z 1.,.,.E E Q Q Q Q Q Q E Q E E ,.,.,.+.&.1.D.6. X6X6X5XOXU.h.z.N.p.g.k.y.r.u.b.b.i.).",
"t.e.8.@.*.5.r.h.t. ., , 2 3 4 4 m > V 0 > r -.E >.E E E E E Q E E E ..E S.,.,.1.1.&.-.;.j.6.G.OXU.P.q.h.t.h.h.k.k.b.a.~.b.b.i.p.",
"i.e.w.w.w.=.t.w.s.v - - , 2 3 2 : 0 M < = e >.>.+.+.R E E E E E B...,.E ,...,.+.-.4.y.u.4.u.g.L.d.9.9.d.h.t.h.j.u.p.n.).p.n.t.t.",
"8.i.t.e.u.t.r.D.3XF @ # - , 2 * - : 8 * * a |.Z.X.,.,.,.,...X.X...| ..>.>.{ >.*.g.y.p.b.u.~.M.M.h.w.t.t.p.i.a.a.n.).n.).n.n.i.q.",
"i.h.t.b.~.z. X<X9Xl   % % % u & % @ = < * < [.%X}.V...,.>.>.o.o...{ { { $.$.&.h.h.k.~.b.i.M.k.n.b.p.w.t.N.a.).i.n.a.t.n.v.n.n.e.",
"n.b.i.v.f.OX0XwXwXl . & w * | . O % < w * 3 [.7X>X$XV...{ { %.%.} } } { $.g.&.*.b.b.t.q.h.d.9.v.h.u.r.t.b.N.E.p.n.n.v.i.i.i.n.i.",
"p.s.oX.X.X0XwXwXqX3Xl w i r | . % = w k w u <X6X3X|.I V.{ } %.o.s.9.@.9.*.b.t.u.i.t.t.q.t.t.d.q.t.9.9.b.i.e.q.i.9.b.a.i.i.v.n.n.",
"v.OX0X9X8X9X<X9XuXuXqX].{ p L w ; $ u u c `.4X6X9X|.I _.Z.o.q.@.9.9.q.M.t.i.p.b.i.i.t.i.i.i.9.8.0.9.t.q.q.9.e.q.q.e.i.i.i.N.).n.",
"U.3XOXOX6X4X<X9X0X0X6XG.{ { R t $ r L L <X9X6X<X,X}.[.[.|.3XU.q.v.0.t.M.t.i.i.i.b.i.p.t.p.b.t.t.9.p.i.9.8.8.q.8.e.i.e.i.).i.i.i.",
"H.R.f.Y.5X5X0X8X9X5X5XOXo.| x c b ].6X4X5X9X9X>X}.}.[.[.>X0X6Xf.n.i.t.q.d.b.t.t.p.u.k.b.~.p.p.n.i.t.9.e.i.e.9.9.9.9.i.i.n.d.q.q.",
"q.i.s.oXOX9X0X0X<X,X0X4X0X3X>X4X0XuX0X5X,X<X,X,X>X}.[.P ,XOXU.q.i.i.t.a.i.M.p.i.b.k.b.h.b.t.h.n.i.i.t.9.e.e.e.9.8.} } i.q.q.q.q.",
"d.q.s.H.U.3X8X8X,X6X9X6XwXuX7X3X4X9X8X<X$X$X>X>X,X}.P Z.H.s.t.t.i.b.a.~.N.i.n.n.b.b.h.b.t.q.q.9.e.9.t.8.9.e.i.t.8.#.@.w.9.t.e.t.",
"q.i.9.OXOXG.6X9X3X8X9XwXuXwX4X,X7X8X4X4X,X|.>X,X>X}.].m.t.t.t.t.t.n.t.v.v.q.m.q.M.h.r.b.v.a.p.i.i.e.9.9.e.i.t.i.e.w.e.w.8.t.n.p.",
"t.h.r.l.2.F.3X9X8X8X3XwXwXqX3X7X8X9X8X6X<X>X$X.XA.z.b.i.u.i.i.t.i.r.g.t.t.t.q.9.9.t.u.h.N.~.n.i.a.~.i.e.i.9.8.8.9.w.t.8.@.9.n.N.",
"x.;.x.4.4.x.F.oX3XU.F. X6X3X$X6X8XqX9X3X.X8XOXP.x.M.M.t.r.h.k.t.i.i.i.i.i.t.q.q.9.#.t.n.v.v.b.b.i.~.e.a.9.i.@.%.@.e.t.9.i.v.b.i.",
"3.-.x.x.!.c.x.K.6.:.:.5.J.D.OX9X8X6XoXG.s.P.L./.c.c.c.k.k.j.j.u.k.u.p.i.t.t.t.i.9.8.9.M.q.q.r.h.8.i.e.i.8.9.8.w.9.e.e.e.p.i.t.t.",
"4.5.x.J.^.x.7.^.5.j.x.x.j.j.U.OXOXoXT.7.^.L.g.F.l.K.l.P.!.x.j.k.j.j.&.*.0.t.q.i.w.e.u.t.d.h.q.q.t.e.9.8.9.9.e.i.e.e.9.q.i.a.p.i.",
"5.5.x.6.F.T.6.7.7.l.x.5.!.^.7.K.D.J.J.c.L.K.6.6.l.6.2.6.L.P.^.c.c.c.u.r.r.0.8.9.w.8.0.0.9.q.i.i.e.9.#.8.9.t.t.9.e.e.q.9.e.i.i.v.",
"g.c.5.T.AXAXoX5.l.7.x.!./.^.7.K.6.6.3.K.F.6.F.F.l.6.l.L.^.l.J.x.l.l.L.g.l.0.0.@.&.*.3.9.t.q.r.e.9.9.w.e.e.p.i.9.8.@.8.9.9.8.e.i.",
"7.K.7.T.AXAX/.7.x.!.^.^.L./.^.x.7.7.7.1.F.F.F.F.x.l.x.x.L.6.6.6.J.2.6.K.4.*.@.@.#.=.r.w.g.r.;.&.#.w.w.e.i.9.8.8.8.8.8.8.8.8.@.8.",
"7.!.K.7.F.D.F.^.^.x.^.x.6.K.x./.7.6.F.1.F.6.7.x.J.K.l.L.K.F.F.6.6.6.6.6.4.*.;.9.w.w.*.&.7.7.4.&.=.r.=.#.@.8.@.@.8.8.8.9.8.@.8.8.",
"6.K.F.F.1.7.K.^.^.x.L.^.J.K.x.K.K.7.F.7.7.6.^.F.2.F.F.F.2.F.6.6.l.6.l.x.7.x.x.r.r.;.;.3.-.5.5.;.;.*.#.#.8.@.@.8.8.8.8.8.9.e.8.e.",
"F.F.F.3.7.K.7.6.6.6.6.J.x.6.K.F.^.^.7.7.7.5.F.F.6.6.F.6.2.F.l.l.l.x.g.x.x.x.3.-.j.j.;.-.;.5.5.5.-.@.#.8.8.@.8.w.w.8.@.8.@.#.r.w.",
"1.1.6.1.F.6.3.1.7.6.4.6.J.7.x.L.(.^.x.^.x.6.K.7.6.6.7.6.5.x.7.5.5.j.j.j.j.7.4.3.3.j.;.-.4.4.-.7.4.;.y.=.-.#.-.;.=.#.@.#.*.#.;.=.",
"F.7.1.K.F.3.3.1.F.&.F.7.7.^.^.6.F.F.K.6.L.x.7.K.J.x.x.x.j.x.x.l.6.4.:.j.j.g.j.4.;.4.j.4.:.:.-.3.j.j.c.g.5.4.-.4.4.r.#.#.w.w.#.$.",
"^.K.7.F.6.3.x.3.1.1.3.3.7.7.P.F.6.F.F.6.6.6.K.F.K.^.^.x.L.x.j.x.3.4.;.j.4.3.5.5.:.:.5.-.;.4.j.y.5.j.5.3.5.4.j.;.4.4.&.-.r.r.=.*.",
"K.K.K.7.3.7.7.F.1.F.>.>.1.K.6.6.6.6.6.F.7.oXAX(.x.J.J.x.K./.j.x.4.3.-.-.3.3.4.5.;.5.-.3.5.5.j.;.j.j.3.1.;.;.j.;.j.-.3.;.j.j.j.h."
};
