/* XPM */
static char *cac82c3cc67c45b6fa3c417f58200d31axVWLAC7FhZYhWmG[] = {
/* columns rows colors chars-per-pixel */
"64 64 246 2 ",
"   c #1C160F",
".  c #200F0A",
"X  c #22140E",
"o  c #261B12",
"O  c #281C13",
"+  c #2B2116",
"@  c #2C2C12",
"#  c #2D2319",
"$  c #2B2719",
"%  c #32261B",
"&  c #362D1B",
"*  c #342A1D",
"=  c #34351D",
"-  c #3B341B",
";  c #37391C",
":  c #1B3530",
">  c #2D2C21",
",  c #352C22",
"<  c #3A2D22",
"1  c #2B3727",
"2  c #3B3323",
"3  c #383727",
"4  c #253D34",
"5  c #413626",
"6  c #423926",
"7  c #453A2A",
"8  c #4B3C2D",
"9  c #493D31",
"0  c #394325",
"q  c #2A483A",
"w  c #374536",
"e  c #2E5139",
"r  c #49461A",
"t  c #4D5413",
"y  c #635E19",
"u  c #59690C",
"i  c #586A13",
"p  c #656518",
"a  c #717B11",
"s  c #484429",
"d  c #4C422E",
"f  c #544D26",
"g  c #49542F",
"h  c #55552B",
"j  c #484532",
"k  c #514533",
"l  c #554937",
"z  c #5B4E3A",
"x  c #5A543B",
"c  c #635B3C",
"v  c #556B34",
"b  c #676928",
"n  c #76792D",
"m  c #686D34",
"M  c #797939",
"N  c #1A534D",
"B  c #185853",
"V  c #285647",
"C  c #2A554B",
"Z  c #375748",
"A  c #296556",
"S  c #356352",
"D  c #317669",
"F  c #2E7B71",
"G  c #5B5144",
"H  c #665946",
"J  c #6A5C46",
"K  c #4E7756",
"L  c #6E6B4E",
"P  c #74694B",
"I  c #766956",
"U  c #7C6C53",
"Y  c #7D7255",
"T  c #777067",
"R  c #817838",
"E  c #857D49",
"W  c #806F56",
"Q  c #85765A",
"!  c #8C7D63",
"~  c #887B6A",
"^  c #7B9607",
"/  c #788916",
"(  c #7FA001",
")  c #7B8836",
"_  c #2E8176",
"`  c #7F8442",
"'  c #7C977A",
"]  c #8B9C03",
"[  c #8D9B0A",
"{  c #8CA601",
"}  c #89A707",
"|  c #8EAB01",
" . c #93A401",
".. c #9CA601",
"X. c #93AD01",
"o. c #9BAC02",
"O. c #94AC0B",
"+. c #98AC0C",
"@. c #96B101",
"#. c #9BB402",
"$. c #9EB903",
"%. c #96B10B",
"&. c #9CB50B",
"*. c #9EB90B",
"=. c #98AB17",
"-. c #9DB512",
";. c #99B415",
":. c #9EB913",
">. c #9BB418",
",. c #A4AC02",
"<. c #AAAE02",
"1. c #A5AD09",
"2. c #AAAE0C",
"3. c #A3B402",
"4. c #ACB301",
"5. c #A2BB03",
"6. c #ACBA01",
"7. c #A2B60C",
"8. c #ACB30B",
"9. c #A3BB0C",
"0. c #A9BC0C",
"q. c #B2B503",
"w. c #B2BA02",
"e. c #B9BA07",
"r. c #B3B50B",
"t. c #B2BA0C",
"y. c #A8AE12",
"u. c #A2B613",
"i. c #ACB314",
"p. c #A3BB13",
"a. c #A9BD14",
"s. c #A6B51B",
"d. c #A5BC1B",
"f. c #A9BE1B",
"g. c #B3B513",
"h. c #B6B917",
"j. c #8A972C",
"k. c #898B3A",
"l. c #8C9034",
"z. c #94963B",
"x. c #A29E39",
"c. c #97A727",
"v. c #99A536",
"b. c #99B230",
"n. c #A9AD26",
"m. c #A2B524",
"M. c #A5BB23",
"N. c #A7B728",
"B. c #ABBC2C",
"V. c #B5BB23",
"C. c #B5B929",
"Z. c #A6AA3A",
"A. c #A7B838",
"S. c #B5BA37",
"D. c #A8C203",
"F. c #ABC403",
"G. c #A6C00B",
"H. c #ABC30C",
"J. c #B6C408",
"K. c #B4CB0D",
"L. c #A7C114",
"P. c #ABC313",
"I. c #ABC21C",
"U. c #B4CB13",
"Y. c #B5C318",
"T. c #B2CA1C",
"R. c #B9D011",
"E. c #ABC221",
"W. c #ABC228",
"Q. c #B6C628",
"!. c #ACC137",
"~. c #B5C43B",
"^. c #C2C51A",
"/. c #C2C332",
"(. c #8B8848",
"). c #8E904B",
"_. c #969647",
"`. c #8C8453",
"'. c #8D865A",
"]. c #978D57",
"[. c #948C59",
"{. c #9A9756",
"}. c #9C925E",
"|. c #A39A5C",
" X c #9BA546",
".X c #96AA53",
"XX c #A5A849",
"oX c #ABB845",
"OX c #B3BB48",
"+X c #A8A858",
"@X c #B2AC51",
"#X c #AEB453",
"$X c #B3B758",
"%X c #8C8766",
"&X c #918767",
"*X c #93836C",
"=X c #89926B",
"-X c #9D9462",
";X c #969669",
":X c #8E8274",
">X c #948573",
",X c #9A8A74",
"<X c #978B7A",
"1X c #879775",
"2X c #989678",
"3X c #A29763",
"4X c #A49A65",
"5X c #A89E68",
"6X c #A1917C",
"7X c #90A370",
"8X c #ABA464",
"9X c #AAA767",
"0X c #ADA36C",
"qX c #B1AE63",
"wX c #B0A66E",
"eX c #B1AE6A",
"rX c #B2AA6C",
"tX c #B1A671",
"yX c #B4AB72",
"uX c #B9AE75",
"iX c #BAAF79",
"pX c #BBB477",
"aX c #BCB579",
"sX c #C1B97C",
"dX c #B7C54A",
"fX c #C5C64E",
"gX c #CACB71",
"hX c #7FA38E",
"jX c #9A8F84",
"kX c #9D9283",
"lX c #A59887",
"zX c #A59B91",
"xX c #84A488",
"cX c #8BB293",
"vX c #AFA190",
"bX c #D1D090",
"nX c #D9D2AC",
"mX c #DDD7BA",
"MX c #E4DBB4",
"NX c #E6E2B5",
"BX c #E6DACB",
"VX c #EAE3C9",
"CX c #E9E5D5",
"ZX c #F3EAD8",
"AX c #F4EDE3",
"SX c #F2F2E4",
/* pixels */
"{ { X.X. .O.o.,.^.h.q.q.q.<.8.h.2.<.<.....,.,.,.2.r.2.2.e.q.q.<.4.r.,.]  .,.<.<.,.y.h./.h.8.8.7.-.f.h.J.D.@.&.&.@.@.@.$.0.3.9.0.",
"{ | X.#.o.o.o.,.h.h.q.e.q.,.r.h.r.q.<...,...,.<.r.e.r.r.g.q.,.,.t.g...[ 1.<.,.<.,.2.h.Q.i.-.-.&.+.i.Y.J.@.@.@.@.| | | #.5.#.8.0.",
"$.$.#.#.#.6.4.3.t.h.q.e.e.<.8.t.r.q.<.,.,...2.<.<.<.<.g./.S.S.i.r.2.,.y.i.1...1.,.8.h.^.g.:.>.+.3.8.8.#.@.@.@.@.@.| | #.&.7.*.3.",
"$.9.*.#.#.6.J.q.q.q.q.r.e.r.q.r.q.r.2.y.2.<.<.r.<.<.2.S.bXNXnXOXs.i.y.g.V.1.,.2.<.<.r.h.g.u.>.&.w.e.3.@.@.@.@.$.@.| @.%.5.*.+.4.",
"#.&.*.*.$.6.J.h.<.,.,.8.q.g.q.<.<.r.2.g.8.<.q.r.g.C.dXgXVXAXBXsXfXgXfXh.g.,.2.2.8.,.4.r.r.p.f.J.J.w.$.#.#.@.| $.#.#.X.@.*.&.o.,.",
"#.o.#.&.&.3.h.h.,.,.o.,.<.r.8.,.,.<.4.e.r.q.8.C.bXVXZXNXmXZXmXnXVXZXMXfXh.<.,.q.t.,.,.<.<.s.V.^.J.9.&.$.X.| %.$.$.@.| &.$.&.X.o.",
"@.$.5.5.7.7.q.t.,.,.o.<.4.q.4.<.,.2.q.q.q.q.C.fXMXZXZXVXnXmXBXmXmXnXgXC.q.,.<.q.q.,...o.<.y.V.Q.h.#.3.#.| | *.L.*.@.X.#.#.O.O. .",
"$.3.3.3.3.3.4.q.4.3.4.q.w.q.q.4.q.8.q.<.<.<.h./.gXNXZXSXCXBXCXBXbXXX=.1.4.,.8.h.,... . ...1.h.V.7.$.#.@.| O.:.L.&.X.#.3.X.%.&.+.",
"6.3.3.3.3.4.w.w.w.q.r.q.w.w.w.w.4.4.<.,.,.<.h.h./.NXSXSXmXVXSXCXbXOXn.C./.C.h.e.<... .]  .o.i.g.#.@.@.@.$.%.;.;.@.@.#.6.,.#.*.+.",
"3.6.6.6.w.J.w.w.w.w.t.t.w.e.w.w.4.4.,.3.,.,.y.i.~.gXnXbXdX#XXX{._._.z.k.z.]._.@Xy.2.,.....,.,.7.@.$.@.$.K.*.*.%.@.@.#.6.6.3.&.O.",
"6.w.w.t.J.t.w.w.6.t.t.t.w.w.t.6.6.4.4.6.6.6.2.2.n.OXOXZ._.`.T I T T ~ ! ~ ~ ~ Q '.|.n.1.,.,.,.o.&.$.@.H.K.9.*.$.X.@.@.3.w.3.o. .",
"w.w.w.t.w.w.w.t.t.t.t.t.w.t.t.q.4.q.6.q.q.q.q.V.S.Z.(.~ <X:XT I I ~ ~ <X~ ~ ~ ~ I U &X+Xn.u.3.$.9.&.G.U.K.9.*.D.#.| { o.6.,. .] ",
"e.q.q.e.w.q.w.w.t.0.t.t.6.t.q.6.6.q.q.q.q.e./.Z.k.! ,X! >X>X~ ~ H G G G 9 k k 9 8 l J J U M j.d.*.*.L.U.P.9.:.$.5.@.{ ..,.o.] ] ",
"q.q.q.q.w.w.w.w.w.q.w.w.6.r.q.6.3.4.q.w.g.C.x.].! 6X6X,X*X,X>XI 3 , > , , , < < < 5 7 5 7 d z P b.>.I.T.9.*.:.@.5.&.{ o.3. .^ ] ",
"4.<.4.w.w.w.w.w.w.w.q.q.6.6.6.4.4.4.8.V./.l.! ! ,X6X! ,X,X*XH % > > 4 4 4 % < < & 5 < * % , 3 Z _ ).W.E.;.%.%.X.$.9.X.X.#.%.{ ( ",
"4.6.6.6.6.6.6.w.6.w.6.6.4.6.4.4.4.4.g.S.x.6XlXlX~ ! ,X6X<Xz O + > N B C : # % < < * % O # $ V 4 e K ).W.%.| X.| @.0.*.X.@.*.*.%.",
"6.J.w.6.6.4.6.J.6.6.3.3.4.4.6.<.4.r.N.).,XzXvXvXvXlX,X~ I % + $ q V A q > $ * < , + O # # > q V e q s l.;.| X.X.@.9.G.$.@.#.L.E.",
"0.6.6.6.0.0.6.J.6.3.3.3.3.3.3.,.3.B._.2XzXkXlXlXlXlX*XG 7 % @ 1 q N e 1 * % < < * o O $ > q V C A 3 * f c.X.@.X.#.$.p.L.%.&.L.E.",
"5.3.3.9.p.3.5.J.J.0.#.X.3.3.X.X.>.v.>XzXlX6X6XlXlX~ l 6 5 * * 1 q e 0 3 g c x j & O o $ w S A S Z 3 2 = n d.&.%.:.*.:.I.:.&.:.f.",
"X.#.u.7.9.#.X.5.H.0.o. .3.3.#.#.Z.).kXzXlX,X6X6X! z < 5 5 = = = 0 v  Xv.=.+.=.c.(.h $ + $ q A Z 3 2 2 2 f c.9.&.*.$.:.E.d.&.#.7.",
"@.@.&.&.*.#.X.&.L.L.p.X.5.5.#.d.l.jXzXlX<X,X,X! z 5 % * 6 ; @ 0 a b.p.*.%.*.9.%.} c.h $ % + > 3 = 2 2 2 7 M Y.9.#.#.*.I.I.&.o.$.",
"D.$.#.&.&.@.X.&.I.E.f.&.0.0.p.m.'.jXjX<X>X,X! J 7 % O % 2 ; g ) %.:.p.@.@.-.:.%.} ;.j.6 + + + & 2 2 2 3 2 f =.H.$.#.&.f.E.s.o.X.",
"H.D.9.&.X.X.X.:.I.E.I.*.9.0.B.).>XjXjX>X*X*XU 8 2 # + $ 2 m c.p.#.#.&.X.X.%.:.%.} ;.M.b % % O O 2 2 , , , < k.T.5.#.&.s.f.p.#.X.",
"G.H.0.@.X.o.%.u.f.I.a.:.G.W.b.%X<XjX<X~ *XQ l Z C 1 @ & n =.*.0.$.#.X.| | %.%.%.=.>.;.k.< % % O + + , 2 3 3 m B.P.#.#.7.a.a.#.X.",
"#.L.0.#.$.D.#.*.a.0.9.7.p.W.).:X>X>X~ ! ~ J j C q = @ h =.#.&.H.$.X.X.X.X.@.@.X.-.>.>. X2 * % % o O , 3 s 3 g #XI.7.$.#.a.0.3.#.",
"@.*.9.9.5.F.D.5.9.0.9.7.M.A.E ~ ~ ! ! &XY l j V V q ; ) #.#.0.H.#.| X.X.@.@.#.X.o.u.s.oX6 < % % O o , 0 w Z g  XI.p.7.o.0.0.$.#.",
"#.$.:.9.%.D.K.H.$.3.#.&.:.z.Q ! ! &X! Q J g C A A A b @.@.%.P.P.$.#.#.#.5.$.3.#.+.>.d.A.d < < % O o , w S D D k.d.f.7.#.0.5.$.#.",
"@.5.$.*.#.#.L.I.:.X.X.&.s.(.! Q ! Q ! W x S A V V v O.#.#.p.L.H.D.5.$.#.5.$.3.#.*.d.s.c.x 5 < < # o 2 Z D _ F ) M.p.p.&.9.#.#.X.",
"@.5.#.#.@.@.:.I.d.%.@.&.A.P Y Y W W W P 8 G e 0 e c.#.o.&.P.P.H.K.F.$.$.G.$.3.0.a.a.d.=.H 8 7 5 % o 1 F F A Z y N.u.*.*.&.@.X.| ",
"$.D.$.@.@.@.-.I.d.&.@.*..XI U U W W W c j 0 0 ; ) H.#.o.9.a.p.U.R.F.#.9.G.$.3.9.a.a.7.v.k 8 8 8 < o C D C V % b +.&.*.*.*.O.| @.",
"G.D.D.D.@.@.%.p.7.&.#.A.[.<X%XI P U U z d 7 ; 0 m.F.$.X.&.7.H.R.R.F.5.L.D.3.5.0.0.p.u.R 8 8 8 8 < + > C q 3 - P O.O.*.9.%.O.| @.",
"*.9.H.G.$.#.&.7.3.#.&.+X*X<XkX<X! I H 8 7 6 ; g H.H.#.X.O.*.P.T.U.G.9.p.*.5.3.0.B.Z.XXc 8 8 7 8 5 O O , * * & M m.+.&.9.@.| | @.",
"&.*.G.L.:.&.#.$.@.O.*.(.>X6XkXlXkX:XI z 7 3 = m H.H.@.{ O.:.T.E.L.*.u.a.#.$.3.A.5X;X=Xl 8 8 7 d 7 & $ @ % % - E #XA.:.*.#.{ X.*.",
"#.$.L.9.&.&.@.@.X.X.B.[.,X,X! ! >X>XI l d s 0 k.P.H.%.| ;.E.E.E.:.&.7.p.@.9.A.7X1X;XY d 8 8 f f f h - @ * % 8 }.5X0X+XM.;.} | ;.",
"D.$.p.u.&.#.@.@.@.X.Z.&X! ! ! ! ! ! c 7 8 d z v.U.H.*.%.:.W.I.:.@.#.&.&.:..X7XxX1X7XY 8 7 8 y a ^ a t t = % x 0X0X5X4X+XB.%.O.>.",
"K.G.u.a.#.#.#.$.$.#.l.! ,X! ! Q ! Q l 5 < 7 c =.P.U.9.:.I.d.:.%.X.#.+.X.oXcXxX1X7X1X;XL h u u u ^ ^ ^ u ; s `.tXtX0X}.[.{.b.O.;.",
"R.H.9.p.7.*.$.0.5.$.l.Q ! ! ! ! ! U 8 < O 7 P ;.P.T.L.*.L.:.&.@.| @.@.;.cXcX' ' 1X7X0X9Xv.^ u t ( ^ u i i ).0XrXrXrX}.'.`. Xm.>.",
"R.U.5.0.7.3.9.0.9.*.(.Y W Q Q ! ! J 7 # o < k.-.T.T.L.$.$.$.@.@.@.@.@.>.cXhX' 1X2X;X2X0X8X+X).m / ^ i t / j.9XeXwX0X[.'.(.].$X#X",
"T.T.5.$.$.$.7.7.&.u.(.I U W W Q Q z 5 X X O / *.I.E.:.@.@.$.$.$.@.@.@.!.cXxX' 1X;X;X;X-X7X9X5XR ) ) b i / }  XtX3X[.[.`.`.[.pXpX",
"E.E.p.@.#.#.#.5.5.d.`.I I I U U W j % X   , / *.E.E.-.&.*.*.*.@.( %.*.!.1XcXxX1X=X'.;X4X3X5X|.].[.R k.(.) )  X-X4X-X[.`.E -XrX9X",
"d.M.d.&.@.#.#.5.5.M.Y J P P I P J 5 o . . d c.u.E.M.:.9.*.*.@.| @.%.G.G..X' 1X=X[.=X-X{.0XrX8X].[.3XwX5X}.[.}.3X4X3X[.E (.+XXXdX",
">.d.d.u.#.@.#.5.0.=.c c H J J H z * , O : g m.u.f.d.*.7.#.#.@.| %.L.L.*.b.' ' =X=X[.4X0XrXyX0X3X3X5XtX0X4X3X-X-X4X3X].{.Z.b.} @.",
"#.u.p.a.&.#.$.G.P.c.l k H H H c 8 < 4 4 C _ m.d.f.:.*.$.#.#.@.@.%.L.:.%.%.A.7X1X;X-X-XtXpXpXyX0X0XyXtXtXwX4X}.}.3X{.+XA.&.X.X.X.",
"#.&.p.0.7.5.#.&.a.c.k 9 9 l l z 8 4 N N 1 K N.p.a.u.:.#.$.#.@.F.G.:.;.@.%.%.A..X;X{..X+XqXuX0X4X0XyXiXtXtX5X5X+XXXoX=.$.5.o.o.X.",
"&.&.*.7.5.G.$.9.T._.7 9 8 k k l w N B V q L M.0.0.p.*.$.*.@.D.R.G.:.@.| @.%.%.:.dXoXm.B.$X+XXX0XyXtXtXqX$X$X~.dX~.d.X.5.5.$.#.X.",
">.:.%.@.@.7.G.H.Q._.3 2 7 8 d j V q N V 1 m B.G.9.*.*.9.*.$.K.K.*.*.$.@.@.@.$.$.#.&.&.*.M.!.dX+X8X+XqXOXOX-.:.I.E.L.&.5.H.$.#.o.",
"&.*.*.%.X.*.H.P.~.n , < 2 7 8 8 4 4 V e ; g v.H.$.#.*.:.$.G.U.P.*.:.*.$.@.@.*.%.@.#.:.s.f.*.*.M.S.A.n.A.=.+.u.I.W.I.p.9.a.#.#.#.",
"&.&.7.%.%.P.E.dXqXc # * < 5 7 7 < 4 q 0 ; 3 (.S.:.#.:.:.*.P.T.0.*.:.*.$.G.%.| | @.%.&.>.&.%.X.9.f.7.O...$.@.u.f.I.L.:.p.a.#.#.0.",
"&.:.-.;.g.S.$X8X0Xc + $ & - r 5 * * < ; ; 2 P 8X+XA.:.-.;.E.E.;.%.%.@.@.G.*.@.#.$.#.O.O.X.#.@.#.7.7.7.5.D.$.&.a.0.0.7.p.u.&.$.5.",
"u.>.>.dXfX@XwXyX0X8   - & - p - * & - ; ; ; c 3X;X0XXXm.>.E.E.@.| X.X.| D.G.#.#.F.0.-. .X.#.$.#.&.9.9.$.D.H.5.9.0.7.7.&.*.&.&.#.",
"~.OX$XZ.x.uXyXsXuXJ   - y r / + O & 5 f r r m 0X4X-X;X9XoXE.M.%.X.X.@.@.$.G.$.@.$.H.P.5.o.$.$.#.$.9.9.#.D.K.P.*.$.#.&.&.&.&.&.| ",
"g.@X8X+X8XsXwXsXpXyX`.b a u a @ % - r y r b ].uXtX8X`.`.+XoXE.%.| @.@.*.*.L.p.$.@.0.P.I.&.#.#.@.5.$.&.#.@.L.I.:.X.X.o.5.#.@.O.{ ",
"XXtXsX0XtXtX5XuXaXsXsXz.[ a a p - - y a R ].0X0XrX-X`.E (.XXOXS.#.@.&.p.*.&.L.:.@.#.L.I.9.&.#.#.5.#.@.@.@.:.d.d.%.@.#.5.@.| | #.",
"@X@XZ.@XwXwXwXyXuXuXqXz.[ ] a p - b k.k.4XyXyXwX-X-X`.`.`.8XrX@XM.&.*.p.*.#.p.I.&.&.u.L.9.$.#.$.D.5.$.@.@.;.f.I.&.@.$.*.| { %.%.",
"n.g.n.@X0XsXwXwXwXwXrX+Xz.j.R R E |.rXyX0XwXtX5X}.}.'.`.'.wXwXqXm.$.p.:.&.@.:.E.u.+.&.0.D.$.$.*.5.F.D.@.@.#.:.9.#.#.&.*.| | ;.;.",
"V.C.Z.XX9XwXyXyX5X5XrXrXaXpX8XwXuXiXuXrX4X4X3X3X4X}.`.(.(.qX$XN.X.#.5.*.%.@.*.E.I.&.#.5.5.#.#.:.5.H.G.$.#.$.7.&.@.&.:.:.| ;.:.:.",
"P.~.Z.Z.XX8XyX0X4XrXwXuXaXaXrX0X5XyXtXwX-X3X3X3X4X}.E {.OXOXW.L.$.#.5.5.#.#.&.I.E.u.o.#.5.@.X.#.*.H.G.*.&.#.#.#.X.&.*.&.o.:.s.>.",
"6.9.S.+XZ.Z.yXwXwXyXyXsXaXaX0X4X0XwXtX5X5X3X}.3X4X3XXXW.B.;.&.H.H.*.$.D.$.$.@.d.I.p.+.@.$.@.@.#.*.p.p.7.&.X.X.X.X.%.*.X.#.*.p.7.",
"0.#.>.dXdX#XrXuXwX5X8XsXaXyX0X0XyXpXwXwX0X3X3X|.|.S.&.F.$.{ X.9.P.L.5.9.5.$.#.u.a.a.#.@.$.@.#.D.$.p.p.#.o.@.@.$.X.X.:.&.&.3.9.0.",
"9.#.p.d.f.E.OX#X#XA.N.XXeX+X4X0XtXyXtX9X|.+XrXOXS.#.$.F.5.X.@.*.I.E.f.*.0.7.#.#.p.0.3.#.5.$.D.K.D.7.a.#.#.#.$.$.@.#.-.:.&.#.$.3.",
"7.*.u.p.9.9.Q.dXdXdX~.dXoXA.+X0X9X0X#XA.B.OXdXN.X.@.5.F.5.@.@.@.d.I.I.9.p.p.#.#.H.0.3.$.G.*.0.U.K.5.p.9.3.&.5.5.$.$.$.&.&.$.X.X.",
"5.*.*.7.7.0.a.a.*.#.@.#.:.B.oXXXXX#XoXB.W.u.X.X.X.X.$.U.G.@.@.#.:.f.f.p.a.p.-.#.0.5.$.#.L.*.0.U.P.5.9.9.$.7.0.9.#.#.@.#.X.X.X.X.",
"9.&.&.#.$.7.5.5.$.$.5.#.@.#.I.~.$X!.:.o.o.#.X. .X.X.&.P.L.@.$.$.#.u.7.7.p.f.p.#.5.$.#.&.d.:.:.T.T.*.3.3.$.&.9.7.#.@.#.D.$.X.X.#.",
"#.&.O.X.@.&.0.G.H.D.5.$.*.*.*.*.>.X. .X.X.#.X.| X.X.*.p.p.&.*.5.D.#.#.7.7.7.u.#.&.@.X.@.u.:.*.I.I.p.@.#.#.#.$.5.$.#.$.K.D.#.#.#."
};
