/* XPM */
static char *ab39510458d34977977f309441806b96hBP5a3Vw4b7CExvs[] = {
/* columns rows colors chars-per-pixel */
"64 64 130 2 ",
"   c #85960C",
".  c #87980B",
"X  c #8C9E0D",
"o  c #85A30C",
"O  c #8AA60D",
"+  c #8DAA0D",
"@  c #9DAD06",
"#  c #94AE0D",
"$  c #98AF0E",
"%  c #96B10E",
"&  c #9BB40E",
"*  c #9EB80E",
"=  c #8CA612",
"-  c #8EA912",
";  c #91A412",
":  c #94AD13",
">  c #99AF12",
",  c #98A61C",
"<  c #95AE19",
"1  c #99AE1B",
"2  c #96B111",
"3  c #9CB413",
"4  c #9FB813",
"5  c #97B01A",
"6  c #9DB31B",
"7  c #9FB819",
"8  c #A3B205",
"9  c #A1B60E",
"0  c #A1BA0E",
"q  c #A8B90D",
"w  c #A1B713",
"e  c #A2BA14",
"r  c #A1B61C",
"t  c #A4BA1B",
"y  c #A9BE1A",
"u  c #A8BA1F",
"i  c #A8BE1D",
"p  c #A9BE1D",
"a  c #AABF1C",
"s  c #AABF1E",
"d  c #8F9B2D",
"f  c #95993D",
"g  c #97A324",
"h  c #9CAF27",
"j  c #9EAD28",
"k  c #9EB321",
"l  c #9AA230",
"z  c #A0B320",
"x  c #A1B522",
"c  c #A3B722",
"v  c #A3B624",
"b  c #A3B821",
"n  c #A6B822",
"m  c #A7BD22",
"M  c #A5B924",
"N  c #A6BA24",
"B  c #A8B920",
"V  c #AAB923",
"C  c #A8BD21",
"Z  c #ACBD20",
"A  c #AABD25",
"S  c #A9BD27",
"D  c #A2B62D",
"F  c #A5BA28",
"G  c #A8BA28",
"H  c #ABBD29",
"J  c #AABC2A",
"K  c #ABBD2A",
"L  c #ACBF29",
"P  c #AEBF2D",
"I  c #B0BF2B",
"U  c #A1AF3C",
"Y  c #A4B734",
"T  c #ADBF33",
"R  c #A3B03B",
"E  c #A6C012",
"W  c #A7C014",
"Q  c #A8C010",
"!  c #A9C214",
"~  c #ABC215",
"^  c #A9C019",
"/  c #A9C01A",
"(  c #ACC11A",
")  c #ACC21B",
"_  c #AEC419",
"`  c #AAC01C",
"'  c #ABC11F",
"]  c #AFC51E",
"[  c #B0C51C",
"{  c #B0C51F",
"}  c #B2C51F",
"|  c #AAC122",
" . c #ADC223",
".. c #ABC226",
"X. c #ADC126",
"o. c #AFC327",
"O. c #AEC229",
"+. c #AEC22B",
"@. c #B1C525",
"#. c #B5C825",
"$. c #B4C827",
"%. c #B0C529",
"&. c #B1C42B",
"*. c #B5C82C",
"=. c #B5C82E",
"-. c #AFC132",
";. c #B0C133",
":. c #B4C532",
">. c #B5C733",
",. c #9FA954",
"<. c #AAB74B",
"1. c #B0BF46",
"2. c #A4AC53",
"3. c #AAAB65",
"4. c #BAC45D",
"5. c #BDC762",
"6. c #C3CC65",
"7. c #C8D26C",
"8. c #C7D07D",
"9. c #C0C384",
"0. c #CDD780",
"q. c #CFD289",
"w. c #CFD292",
"e. c #D3D39D",
"r. c #D4DC9F",
"t. c #E7DFBE",
"y. c #DEDBC2",
"u. c #E5DCC4",
"i. c #E5E4CB",
"p. c #EFE9DE",
/* pixels */
"8 8 8 q q @ 9 r | e * 4 2 2 6 7 % * e % * e * % # 2 4 * E E 4 6 V o./ { / 4 e  .4 4 & > 2 3 $ 0 * y e 0 w 0 w * > $ + 2 & > $ X ",
"8 8 8 q t $ @ a C * y y # > 2 4 * 7 e * 0 3 y 2 # e q 2 _ ] % * e O.r >. ./ e H e ! * * w 3 4 e r 4 # * w t e % & $ * & # ;   . ",
"@ 9 & 9 u u { C t t %.C 2 6 % 9 3 e * & w * a w 4 / #.e  .C e y i C r G A n / V V &.4 ! a e & y 4 % 2 & 3 e * 9 # # w w & 3 , ; ",
"& w t y t r L G 6 r V A y w 4 / e y * y _ e L e a C =.| L r y $. .6 3 k k 7 G < r A t a %.e a @.4 4 y 3 : & * w # # > $ 3 & > O ",
"y 4 2 M c 6 z v k 5 6 M r e r t t u 7 y O.A V y r t M n n y C c +.5 5 < 6 v v 1 5 c r A ;.u =.O.y e V e e e 2 e w * * 0 & $ $ # ",
"r 2 r 3 6 5 < 6 k v < < 6 6 $ e r e y @.y r 6 ..6 t 7 < 5 A  .7 v c k v 6 < < 7 6 r r y L v L L t y L C  .4 e a r $ & 4 $ e & % ",
"* & 6 e 6 5 6 6 r 7 6 7 r a w t @.y H %.] a n A 6 5 6 - 6 M 5 D < 1 6 k r r 6 c 6 n @.@.v 3 5 M k A 5 k L y r r 3 < # 0 4 ! q 0 ",
"4 4 & r 3 2 6 6 y t 7 y y a a y %.%.C V @.O.n t e 6 7 t 4 < < v 1 1 6 6 r C r 6 r a r ;.r : 5 Y q.8.D 1 z n C 3 # & 2 y w t 2 * ",
"% e 3 3 6 e 7 2 C  .r _ #.r y  .| v r v &.c u  .@.6 3 m < - 1 c c 6 6 z V n n t r s r M v k 0.t.u.u.e.Y 7 k 3 6 * $ * 7 e % % % ",
"% 4 a > 2 C # 3 V ;.e =.&.y t O.r y 7 v u 6 u H V r 6 k 6 : 6 7 r n u n 5 k c c r v L 1 5 c 4.i.u.u.2.h 6 r 6 6 e e r w 6 & 3 % ",
"* e r : : k 2 6 E a V %.L a y A n &.v r v r { 5 M a 7 5 C 6 a 3 5 r #.M : < 6 6 v k < < 6 b j l d f g 5 7 r t t y y r w 3 E & % ",
"3 2 6 < < < < r @.7 7 6 v 7 L 5 v L y C r 6 &.6 7 #.r 7 7 / r 3 t 6 v v 3 j < 6 6 v < 1 6 b n 6 < , r 3 6 a u u y r > < r 7 % * ",
"% 2 - k k : 7 6 M 3 3 < r 7 D 1 < v n v 3 5 T n A >.r e v B 3 7 2 a r r 6 c 6 6 1 5 7 7 6 6 5 6 2 e i e 3 t w e r 7 : # 2 4 & r ",
"o 2 2 < < 3 v : 5 5 5 k r 7 6 6 k < 7 7 a r C n H I ..a s V @.r 6 A r 7 y < 6 e r r 6 7 r r 4 r e i r 4 * 9 e t * 2 % # & 4 e e ",
"2 3 < 2 a r M r < : : = < 3 6 6 6 6 6 7 C #.A 6 c v c n c 1 P C r r 6 6  .r 7 @.V 7 t y r y r r i r 3 % % 4 w w * % $ $ 4 & 4 4 ",
"2 2 2 7 M < 7 r = : = o = > 6 6 7 e r V r  .v 6 < 5 6 M k < 6 v a r + 6 H v y $.r y r  .e e 3 ! r 2 % % 2 : 7 3 * 0 % % 4 & 3 & ",
"% 3 7 2 k : - k : 2 2 2 2 3 % 2 2 5 3 4 y v M k k 5 k 5 6 k 5 r 6 < 3 4 a C b -.C a r G ` _ 7 / ! e e e % & 6 * & r e * & 0 * 3 ",
"% 2 5 2 5 5 < - : > 2 2 2 2 2 % + o 2 6 A 5 1 5 k 5 6 6 6 c 5 7 6 7 r / a r 6 c n r C 6 H  .i r r r 7 & & 0 * * e e & # > 4 & e ",
"# % O - - - = - : # % # % % % 3 % % 4 & r < < r 6 3 r V r 7 6 i t t n / v 6 < k r k v : y H V b + # 5 * 4 6 & * & 3 2 > % e & _ ",
"- 2 2 2 2 O - : 2 % % & 2 e 4 7 2 4 4 e a : r r a r r r 6 6 6 r t y a r 3 6 k 5 6 a 6 7 o.5 r 6 r & * 0 * e & e & % 3 > 3 e e r ",
"2 % % 3 2 # : 5 4 * & & & 6 r e 4 % _ y H 6 r r A b M 6 * 7 w e ` t a r 2 | n t 7 %.y b +.6 6 5 V & e e 4 & 4 y * * * % & 4 r % ",
"% % % % 2 - # 3 * e e ! 0 7 u u u 3  ...V r 7 a n c t y y y e e a t 2 a e G r ` i :.A V L / t r r 4 r 7 y % # 7 * 0 ! y * r 4 & ",
"4 W 4 % 3 2 2 2 * e t / e 4 > w a y A c < 4 6 z 6 6 6 P @.r e r b ;.5.6.+.V y V | O.M M Z @.C y t r 3 < < 2 2 2 3 w e / e 4 4 E ",
"3 t 4 & 4 & * 7 2 4 / r * & 3 3 M 7 6 < 5 u 6 1 5 n 6 G > 3 e e 6 7.y.e.%.< v 6 n A 6 3  .>.A |  .7 : o o # * 4 2 * * 4 3 # 7 7 ",
"4 e t 4 * 4 e 3 * * 7 7 4 w t t 6 4 e 2 6 v 6 2 r A 5 6 3 ] t 9 e =.U R C 1 r b r V M  .%.n r %...2 4 2 % 2 % % 4 3 & % # : % 4 ",
"4 4 2 # % 2 * 4 0 9 r 3 e e e t r 6 m ` 3 6 i y a b 6 2 2 ..e e / =.r G G 6 5 b C V c H G r r M  .W 7 2 W 4 % % # o + # > : # * ",
"4 2 3 2 2 * * t y 9 w w 7 t / r ` r k A : < A 7 3 i y { y A V a | ;.u %.y r V 7 G M k z c < 6 h k k 7 7 7 2 % % + O > # & # % * ",
"w & & & 2 4 E 7 & # w e 4 6 ..u / 4 5 k - : 5 7 7 i e 4.6.n m 6 n c r n |  .m b v z 1 < k k k 1 < k 5 # 6 / & 6 w * * e & & & & ",
"4 * * 0 & 3 t 2 % 2 & 6 0 e e 2 | r 3 < 5 < < - 2 -.0.t.u.w.1.k k 6 < 5 P n 7 2 < 1 6 1 c 5 6 6 r 7 7 7 r e y e r 3 & 4 & e 0 & ",
"4 * e / e w e & e t 4 4 e 6 4 6 7 7 r < 5 < o < O <.r.i.p.9.j k 5 5 j 1 n < r + > > 6 6 7 6 6 6 t t r a r 4 6 e r 6 2 0 & y e 0 ",
"3 e e ` y * 4 r e 6 w 0 t 7 3 < 6 2 M 6 r : 5 2 O - <.,.3.l < 6 7 k 6 6 < 6 r & > r r r 5 r r r 6 m i t e y e 6 3 # 2 y e w & & ",
"6 6 e e 3 % > 3 3 2 6 6 > = - : < r r c m 2 3 2 2 2 2 ; ; > r r r 3 < 1 < 6 2 # * > e 2 * > 2 7 4 4 e 6 6 y w 0 * & & 7 r % % % ",
"* * 4 3 : : % 6 2 4 4 2 % + 2 2 : k : 5 k 7 7 2 2 4 & % > 2 6 w r r r r 1 & $ 2 2 3 6 * e & $ 3 % * 3 # 2 7 4 0 0 ! * w 6 * 3 2 ",
"6 y 4 & % & % # 2 % % % 2 % 2 2 2 < : - 5 2 6 2 2 2 % + . O & 7 6 r r r r e y & & 2 9 & 6 e & * 9 0 2 2 2 2 6 0 y / e 4 4 W 3 % ",
"4 e & 8 $ $ # O + + 2 2 3 % 2 % : - 5 5 - - o 2 4 % % + ; 3 : & e e e 2 3 7 2 & 4 w & * e 2 $ % 3 4 e 0 9 w 7 w y 4 3 % 3 6 % 4 ",
"3 & & % # $ 4 % 2 % % 2 2 % & 4 < < - - - - + % % 4 & % % 6 & * * 6 4 : 2 & & 3 w 4 * * 4 & > # & * e q 9 w 4 * 6 3 : : 2 * 3 4 ",
"> 3 & r * * * * 3 % 2 2 & e * / r : : + 2 % 2 2 % % 2 2 * * * 3 * # > < 3 & e e w & * 4 & # 3 3 e e 7 3 % e e t & % > # & 4 e & ",
"$ 4 e e 3 % 2 e % E * 3 r 6 y e 4 > : 2 % % 3 % % + O % # 2 3 * e & * 6 2 3 e r 4 3 y 4 * * * * 3 i & % % 2 w e & @ $ $ & & e 4 ",
"* * 3 3 2 2 % * 4 ! 0 0 w * 4 w 2 : : & 2 3 3 % % % 2 2 2 & 0 * y e q w & * * 3 2 # 2 3 9 e / 0 4 4 & 3 % 2 6 * & * > # w % 3 4 ",
"& w & & 3 2 3 E 4 7 3 * w e w % < 2 & & e * 4 & e * % 3 3 2 e e 6 & & w t e * 2 # > 0 & 0 e / e 4 4 e e % & 2 * & r e & 9 & e 2 ",
"e e * & & % & t 4 % % 2 6 y 4 % % : % 4 w w 2 w t & 9 0 % & 7 r % % % & e w & @ # > w 2 3 e e 3 2 3 r 2 4 * & & 4 e 3 $ $ 6 & 0 ",
"3 e * 0 ! 0 * r 4 % 3 % 3 * & e % @ 3 & * 3 # 2 r * 0 e ! 0 w 4 & 4 2 2 3 & & 3 # > 3 & e 2 6 % : 2 * 2 4 w w * 4 3 & : # * & e ",
": % e * y y e w 4 e 2 & 2 4 & w e * * 9 0 & 2 2 2 e e e y e w 6 y 3 & 2 2 w & t e 9 w 0 * & # > < 4 & e 4 w & 4 4 $ 3 & 2 e * 7 ",
"4 * & e e e 2 & 7 6 & * w * * e e % # 3 * 4 0 * w 6 e t w 4 % 3 6 % * e & * w w & # 2 4 & e * * 6 & * r w 4 4 y & & & & & 7 4 + ",
"> e * 9 r * : # 3 2 * r 4 * * 3 2 2 # & * e y 0 w 9 & w 2 : : & * * 6 e & 0 * 3 # > % * & ! e 0 4 & & 0 3 # # 3 * 0 e E 0 w w % ",
"# 3 # % # 2 : > & * * w & 0 w $ & 2 3 e e 7 2 & w e t 9 # > > % & e w w & e & % 2 2 3 y 4 r 2 * w r e & > # & % * e e | e w 4 y ",
"% 9 & 0 $ # 2 % 4 w w 4 3 e * * * & & & y 2 % % 3 e e & % $ # * & e w 2 e y & * * & & r 4 % % % 3 e * & # # 6 4 # e e e 4 % 3 b ",
"$ & e & & & % 6 3 3 3 % : 3 4 0 e ! 0 6 7 & 4 % 2 3 * & & $ $ 3 & 2 4 # % 6 & 0 ! e 0 w 4 4 2 % 3 3 & * # # 3 3 & * 3 3 > : % 3 ",
": $ * & W E 0 w * & 2 2 > % % e e / y w 4 y 4 % & 2 w $ t e * 9 * 0 2 % 2 & w w t y e e 4 e 2 % 2 w $ e w & w * & & # # > 3 & 4 ",
"2 2 e w 7 4 % e r 4 & # > e & * e e 4 % 3 7 > * * 2 * 9 w 3 # & 6 & 0 * * 6 6 e y e 2 2 7 7 & * 2 * w e w * & 6 * * & $ 3 6 & w ",
"$ & e e % 2 % 6 r & & # ; 2 4 & 2 2 # # > 4 2 4 w 9 * * e % : > * & y e 0 w w * 6 * : : 2 3 4 w w * & w 2 # % 0 & e ! 0 w & & 4 ",
"0 * 6 7 % 3 / 3 6 E E % $ 2 & % & $ < < # % * 4 r % 4 4 % 3 2 : e 0 r 4 * 9 e e * # > % & w 4 w % * w > 2 2 % 0 3 r e 9 4 e w * ",
"/ e e 4 % 2 M = 2 r 3 4 & & 9 0 & # # $ $ * e e 9 4 y 4 * & * & 4 y % % # 3 e w % @ # * & e w 9 9 q * * & # & 5 y 3 # % 3 t w & ",
"e 4 4 e 3 5 6 - - 7 7 3 4 % 2 0 & e % 9 r * 6 3 % # 3 * 0 0 q 0 6 e % 3 2 3 w 3 0 $ # : 4 & 6 % 3 r 4 * 0 0 * 7 4 % 3 2 > w * 9 ",
"2 4 2 | r 6 5 k < : - 2 7 2 & * 4 ! 0 w w & * > > 2 % & e e _ e 4 4 E 4 # 2 > & 6 e & 9 & * 6 % 2 3 3 * e / e e 4 e 3 # 3 3 & > ",
"# 3 3 6 6 r : 5 < - - . : % 4 e w r & 9 e e 9 $ : 2 e % e e e 3 & 6 7 % * & > * 0 e 9 % 4 0 & & 2 3 r e y y e & 3 r & & $ # 3 & ",
"3 2 - 2 5 F 4 7 - 5 % + + % % 7 4 % % % 4 y * % # ; 2 4 & 3 2 % # 2 w & e e * * w 2 2 # % * 4 E 0 e 3 4 7 3 2 # 3 7 & 4 e & & 0 ",
"- 5 2 3 t 7 M k 3 2 % 3 3 % % 7 & 2 2 % 3 3 3 9 ; # 3 > % & % < < % & % w 3 & 4 $ $ 3 > * e 7 / * 9 4 4 4 & < > % & * 6 6 & * 4 ",
"3 3 4 m 6 2 7 k 7 3 2 3 3 2 % % 3 4 & 2 3 2 & 3 e 9 9 * 0 2 % % % & e e w w e 0 * & & & 6 / 4 % # & e y * $ $ $ & 4 e 4 w * e * ",
"4 3 7 k 2 2 - 5 2 5 2 2 3 % + o : 3 2 * 4 & 4 w w 3 & 2 e & & & & 7 4 6 4 % 7 w * 0 0 * & r % 2 % > 4 4 & @ # $ 4 & 4 4 & r e & ",
"W t 4 5 a 5 - - O + % % 2 % + % & 2 4 4 4 * * 6 & > # % * e ! 0 e w * 2 % > > & e 9 / E e 4 * 4 2 & > & & 4 e * 4 @ w 3 # % 6 * ",
"2 | 2 : k = - + 2 + # # 3 2 % % # 0 w w & * 0 # & w & 6 e t y & 9 w w 4 # 2 * % 4 0 y r * 3 t 3 & % % 4 % r  .e & ! e & 2 y 3 e ",
"t r < - k - 2 4 * 2 % % + O # # % e r w 4 e * * & y e 2 e m t $ 4 e e * @ # 3 4 * w w 2 & : 7 3 * 4 y e * & m M 4 #.r e e C 7 4 ",
"3 5 5 < < % 7 | 2 % * % o + % * * * 7 3 # w 4 * * _ / y y / m e t a 4 & & # # 6 4 2 2 4 e 2 * W y 3 / / % 4 7 H r =.s ] e L y [ "
};
