/* XPM */
static char *_27f12e1465e4c51da3357001244af293YWKUToBgwBG1MRt[] = {
/* columns rows colors chars-per-pixel */
"64 64 222 2 ",
"   c black",
".  c #151215",
"X  c #291B10",
"o  c #352404",
"O  c #130D22",
"+  c #151023",
"@  c #191326",
"#  c #1B1628",
"$  c #1E192A",
"%  c #241B24",
"&  c #211C2D",
"*  c #231E31",
"=  c #28242C",
"-  c #312424",
";  c #262133",
":  c #292434",
">  c #2D2934",
",  c #2C2639",
"<  c #2E293B",
"1  c #312D36",
"2  c #322C3D",
"3  c #373439",
"4  c #532B02",
"5  c #583715",
"6  c #613B14",
"7  c #4B3729",
"8  c #6E4108",
"9  c #704810",
"0  c #494939",
"q  c #6D5127",
"w  c #72783B",
"e  c #342D42",
"r  c #363143",
"t  c #393346",
"y  c #3E3943",
"u  c #3E374D",
"i  c #3F394D",
"p  c #3F3A51",
"a  c #403A4E",
"s  c #433D52",
"d  c #464247",
"f  c #58584A",
"g  c #464253",
"h  c #4A4556",
"j  c #4E4A54",
"k  c #4E4B59",
"l  c #514B55",
"z  c #514E5D",
"x  c #58555B",
"c  c #615B5C",
"v  c #6A6C4E",
"b  c #73774E",
"n  c #6A6B56",
"m  c #5A5664",
"M  c #615D6D",
"N  c #696668",
"B  c #756B65",
"V  c #7B7467",
"C  c #6A6773",
"Z  c #6B6A76",
"A  c #726B76",
"S  c #74737C",
"D  c #7C7979",
"F  c #87560D",
"G  c #916519",
"H  c #A5700F",
"J  c #855F23",
"K  c #8F662E",
"L  c #A97C26",
"P  c #8E714D",
"I  c #A37E47",
"U  c #798236",
"Y  c #7B8347",
"T  c #899A00",
"R  c #818E1F",
"E  c #86A500",
"W  c #8DA505",
"Q  c #8DAB00",
"!  c #8DAA0D",
"~  c #94AE00",
"^  c #9AAE00",
"/  c #91A60D",
"(  c #94AE0D",
")  c #99AF0D",
"_  c #96B200",
"`  c #9BB400",
"'  c #9FB800",
"]  c #96B10D",
"[  c #9CB40D",
"{  c #9FB80D",
"}  c #8FA817",
"|  c #95AD15",
" . c #98AB18",
".. c #9DB416",
"X. c #9EB618",
"o. c #A1B600",
"O. c #A2BA00",
"+. c #A9BA00",
"@. c #A1B70D",
"#. c #A3BB0D",
"$. c #A8BE0D",
"%. c #A1B616",
"&. c #A4BB16",
"*. c #A9BE16",
"=. c #A2B61C",
"-. c #A5BA1C",
";. c #AABD1C",
":. c #8C9633",
">. c #8A9738",
",. c #97A925",
"<. c #9DB227",
"1. c #99A938",
"2. c #9EB230",
"3. c #A5B923",
"4. c #ABBD23",
"5. c #A5B82A",
"6. c #A2AF34",
"7. c #A7B936",
"8. c #D29205",
"9. c #A7C000",
"0. c #A7C00D",
"q. c #AAC20D",
"w. c #ABC116",
"e. c #ACC11C",
"r. c #B1C616",
"t. c #B2C71B",
"y. c #AEC222",
"u. c #AEC02B",
"i. c #B2C623",
"p. c #B6C925",
"a. c #B1C32A",
"s. c #B3C536",
"d. c #899247",
"f. c #929D48",
"g. c #8A9253",
"h. c #98A250",
"j. c #A9BA47",
"k. c #A7B34C",
"l. c #A9B752",
"z. c #909178",
"x. c #AC8E62",
"c. c #9AA361",
"v. c #9DA673",
"b. c #ACB96D",
"n. c #ACB879",
"m. c #D4A444",
"M. c #CCAE75",
"N. c #B4C449",
"B. c #BAC958",
"V. c #B4C168",
"C. c #BAC575",
"Z. c #C3CE71",
"A. c #C8D279",
"S. c #7C7A84",
"D. c #817E86",
"F. c #84838A",
"G. c #979084",
"H. c #8A8992",
"J. c #8C8B93",
"K. c #94949B",
"L. c #999699",
"P. c #A89D8A",
"I. c #AAA28A",
"U. c #ADAD96",
"Y. c #9798A0",
"T. c #9C9CA3",
"R. c #9FA0A7",
"E. c #A3A4AC",
"W. c #A8A7A8",
"Q. c #B8BDA7",
"!. c #ADAEB4",
"~. c #AFB0B7",
"^. c #B1B2B5",
"/. c #BBBBB5",
"(. c #B2B3B9",
"). c #B7B9BE",
"_. c #BCBFBD",
"`. c #C7B290",
"'. c #C5BFAB",
"]. c #B9C286",
"[. c #BDC0BD",
"{. c #CAD384",
"}. c #D0CF92",
"|. c #D3DA98",
" X c #C2C1A9",
".X c #D6D8AF",
"XX c #C8C4BC",
"oX c #E1CFAE",
"OX c #EBDAB7",
"+X c #DDE3B5",
"@X c #E5E3BA",
"#X c #F3E5BE",
"$X c #BDBFC4",
"%X c #BEC0C5",
"&X c #C0C2C7",
"*X c #C3C5C8",
"=X c #C9CAC9",
"-X c #CCCCCB",
";X c #CECECC",
":X c #D9D6C6",
">X c #D3D3CD",
",X c #DBDAD3",
"<X c #D7D8D8",
"1X c #E3DDC8",
"2X c #E7E7C9",
"3X c #F4EAC8",
"4X c #E5E2D6",
"5X c #E9E5D8",
"6X c #EDEADC",
"7X c #F2EEDE",
"8X c #EEF2DA",
"9X c #FCF5D4",
"0X c #F4F0DF",
"qX c #DCDDE0",
"wX c #DFE0E3",
"eX c #E4E5E7",
"rX c #EBECED",
"tX c #F3EFE0",
"yX c #F4F0E0",
"uX c #F6F7EE",
"iX c #F7F7F4",
"pX c #FFFFFF",
/* pixels */
"o.+.o.+.+.^ o.$.;.#.#.@.[ [ ..[ ` ' #.` ' $.` ` _ [ [ ` q.9.{ X.w.y.$.r.w.' #.e.O.O.` ` [ [ _ +.` w.{ O.O.O.O.` [ _ ~ [ _ @.^ T ",
"o.o.^ +.*.^ ^ *.;.@.$.$.~ [ [ [ ' #.@.' ' [ 0.` ~ $.9.[ r.w.` ` #.a.&.a.y.q.#.y.#.q.o.` #.` [ $.$.{ _ _ @.*.@.` ` _ ' ` ~ W T T ",
"^ +.o.o.*.&.r.*.#.*.i.;.[ { _ @.@.@.o.` #.' w.#.{ w.t.0.y.;.$.q.0.w.5.|.A.s.B.y.4.i.o.q.w.#.o.$.{ _ ' _ [ @.' O.^ ~ @.@.[ [ ) T ",
"o.@.%.*.*.@.4.4.@.%.3.;.&.@.@.w.#.$.O.$.q.0.y.@.-.w.s.e.a.@.&.i.i.X.A.iXA.|.0Xj.%.4.*.r.s.-.q.r.{ O.w.@.[ [ ` ` ^ ~ [ _ [ o.) } ",
"*.@.[ -.=.%.=.-.....%.-.%.@.&.&.$.&.@.*.y.4.;.0.&.&.&.-.*.w.*.-.s.{.uXyX|.yXA.] ( =.<.v 3 h.p.i.0.$.4.@.$.@.` $.#.O.O.O.` ) _ ~ ",
"%.[ #.[ %. .| ....X...] %.{ ^ #.&.#.*.i.&.&...y.X.&.{ ] 2.j.V.].+XiXpXiXiX+X<.X...&.v @ O & h.;.&.&.;.*.i.@.@.*.#._ _ @.` #.o.` ",
"o.` @.@.[ ......%.X.%.@.&.&.@.$.r.*.y.a.w.w.X.y...2.l.U.Q._.%X<XiXpXpXpXpX8X|.N.3.-.a O O + 3 =.%.4...%.y.-.$.-.[ ) _ O.` q.$.O.",
"` #.` &.[ ] [ [ w.*.X.$.w.*.*.w.a.>.:.,.i.i.e.<.b.].%X%X%X*XwXiXpXpXpXpXpXpXpXuX@XC.3 O + + > 2.{.{.5. .=.-.*.[ ~ [ [ 0.@.&.[ ` ",
"` $.o.[ [ $.@.[ ;.e.#.r.t.#.w.e.:.3 g d U e.N.Q.$X&X&X$X%XwXpXpXpXpXpXpXpXpXpXpXpXiXE., O O 2 +X1X1X|.7...%...[ o._ o.@.#.` _ _ ",
"_ #.&.( [ ;.~ ` &.a.*.p.a.w.$.7.0 * s s 0 c.[.%X$X$X$X$X<XpXpXpXpXpXpXpXpXpXpXpXpXpXpX^.2 O V 2XOX,Xk. ...%.[ @.$.$.#.@.@.` [ _ ",
"' #.%.( ! =.( [ q.e.*.4.4.*.*.6.: + e g p S.%X%X$X&X$X=XiXpXpXpXpXpXpXpXpXpXpXpXpXpXpXpX!.t k.6.:.>. . ...&.&.*.&.&.&.#.{ q.` _ ",
"] [ ..[ ( ( [ %.t...@.%.=.%.;.,.< + # r s z (.%X$X$X%X<XpXpXpXpXpXpXpXpXpXpXpXpXpXpXeX^.H.B 5.@. . .&.#.#.&.*.*.*.&.( ) { X._ ' ",
"_ ] ] ....( [ %.;.@.[ ( &.%.3. .0 + + @ * e Y.$X&X$X*XiXpXpXpXpXpXpXpXpXpXpXpXiXrX<XH., O & h.@.@.$.$.$.@.#.#.#.$.[ ] ( ` { ' #.",
"E ] ] ] [ ) -.( ..| ] ..&.......U $ + + O O S.$X$X$X-XrX-XH.S.Y.-XrXrXeXeXeXqX<X*XE.2 O & @ 1 4.$.*.&.@.` ' #.#.` ~ [ ^ ` { #.{ ",
"] ] ] ] *.&.-.{ ( ( ( / ( @.....,.r O O O O S.$X$X$X$XS., O O + ; m Y.$X&X$X$X$X$XS ; B I.z.a f.&...[ ^ _ [ @.$.` ` ` ^ { ' #.{ ",
"] { ] { -.....&.! ! ( E Q ] ..%.X.G.e O O @ H.$X$X!.s O & s C P c ; ; z.$X$X$X$X$Xm B oXOX#XI.f -.[ _ [ [ [ [ [ ' O._ _ [ ` { ` ",
"' ] { { X.] ! ..( [ ] [ ] { ] ] 2.[.J.p @ g ~.%X).M O 2 G.oX3X9X9X'.N = S.$X%X%X$Xm 6 K `.3X#XB s.#.#.#._ ` [ O.` &.@.o.o.O.' ` ",
"_ ] ] ] ] | ] ! ( [ ] _ _ ] _ Q C.%X%X!.H.E.%X%XJ.$ : P.OXOX9X3X9X9X3XN ; K.%X%X$Xc 4 F M.7X3XP.k.&.&.] ' #.' ' #.@.` _ [ { ` $.",
"_ _ E Q Q ( ! ! ( ~ _ _ _ ` _ X.[.%X%X%X%X%X%X].z O P OXOXOX`.I I M.3X'.& k $X%X&XC 5 H q P }.U.c._ { ` { @.' ' [ [ [ ( _ O.` q.",
"_ _ _ { _ Q Q ] ` _ _ _ ] 0.{ N.[.%X%X%X%X%X%XR.: # L.1XoXI F H 8.m.5X6Xd t (.%X&XK.7 L o 4 M.P.v.` ` #.{ @.' #.` ` [ [ { 0.@.&.",
"] _ _ [ _ _ ( [ ` O.' ` ` { &.B.$X$X%X%X%X%X%XY.* * `.OXx.F H 8.8.OXpX5X3 y (.%X$X(.j q G 9 I B R.X.[ #.@.' { $.O.` ' ` ` #.#._ ",
"_ ` ` ` ] Q ~ [ ' O.0.q.O.%.&.C.).%X%X%X%X%X%XE.* & U.OXK 6 H H X V XXP @ g ).%X$X&XK.2 - X % z $Xl.&.&.w._ _ [ o.O.q.0.' @.{ ` ",
"{ 0.@._ [ ] ] ` ' #.$.e.@.@.[ V.%X%X%X%X%X%X%X).a + P oXP 6 G :.X . J 5 O Z %X%X%X%X%XE.Z j z K.$XQ.X.( ( ] ` [ ' @.#.w.#.#.{ q.",
"{ 0.@.` @.` ' { ` { $.#.O.` O.V.[.%X%X%X%X%X%X%XM @ e P.`.6 8 L L J J % 3 v.[.%X*X^.L.E.T.}.,X<X<X:Xj.E E ( ' { [ #.' { { _ { X.",
"{ #.#.' ` { O.@.' ' X.&.O.@.$.j.$X$X$X$X$X%X$X%XK.: @ > V P 5 6 J q - : H.*X>X-XB = . Y S.>XyXyXyXyX{.` ` ] _ _ { [ ' _ _ ( _ @.",
"` #.` _ _ [ ' @.9.' @.[ #.#.#.3.[.%X$X$X$X$X$X$X%XS.r & # ; = % % = 3 J.,X5XyXXX=     . G.rXyXyXyXyX|.] 0.{ ` _ Q E Q ~ ( _ _ o.",
"@._ [ ] _ ' ' #.$.O.O.@.[ *.w.&.[.$X$X%X$X$X$X$X%X%XE.J.S.C N Z S L.XX6X0XyXyX0X/.F.D W.8XyXyXyXyXyX|.w.X.{ _ _ Q Q [ _ ` _ ` ` ",
"@.` ` ` ` #.0.{ _ _ @.#.@.[ y.&.C.$X$X$X$X%X$X$X%X%X%X%X%X%X$X%X>X7X0X0X0X0X0X0X6X5X5XyXtXtXyXyXyXyXC.~ X.0.' @.@.O.` O.O.` ` ` ",
"{ O.' O.' [ &.` ` ` ` [ #.$.@.[ u.[.$X$X$X$X%X$X%X%X$X$X$X%X%X<X0X0X0X0X0X0X0X0X0XyXyXyXyXyX0XyXyX8XN.{ &.@.$.@.&.[ ` { ` $.O.` ",
"@.O.O.w.0.@.@.' @.&.@.@.0.[ @.{ X.].%X%X%X$X$X$X%X%X$X$X$X$X;X8X0X0X0X0X0X0X0X0X0XyX0XyX0XyXyX0XyX+Xu.w.&.@.@.@.&.[ [ O.` q.$.O.",
"[ #.#.w.#.O.[ #.$.[ @.{ &.[ [ ] ] <.[.[.$X[.%X$X%X$X$X$X$X%X4XyX0X0X0X0X0X0X0X0X0XyXyXyXyXyX0X0X8XZ.&.-.$.0.#.@.[ ~ [ 0.#.@._ ` ",
"%.{ 0.@.{ ] [ [ [ ` { { ( ! ( ( ] w.j.[.).%X%X%X%X$X$X%X$X=X8XyX0X0X0X0X0X0X0X0XyXtX7X0XyXyX0X0X{.-.@.{ @.&.@.@.O._ ` @.#._ ` _ ",
"` ' @.[ ] ( _ { { { { _ _ Q _ ] ] X.| b.[.%X%X%X$X$X$X$X%X-X6XyX0X0X0X0X0X0X0X0X5X4X6XyXyXyX6XA.@.` [ _ ] [ @.O.0.q.O.@.{ ` { _ ",
"$.w.@._ [ ] _ ~ _ _ _ _ { _ ` ] ] | ] } n.[.%X%X%X%X$X%X$X%X>X6X0X0X0X0X0X0X0X0X6X6XyXyXyX2XZ.O.O.O.` _ ] [ @.#.#.w.@.O.@.q.` _ ",
"[ #.` o.~ ~ _ Q Q Q _ { _ _ ` _ ] ! ] ] } v.[.%X%X%X%X%X%X%X%X-X4X7X0X0X0XyX0XyXyXyX0X8X@XB._ _ [ ' @.O.O.@.{ #.0.@.[ _ [ X._ ' ",
"[ [ o.o.~ _ { ` ] _ Q ] { _ ` { ] ( ! ! Q _ b.[.%X%X%X%X%X%X%X%X%X-X,X5X6X0XyX0XyXyX2XA.=.` ] ~ ' ' $.q.O.#.o.` { [ ] ] _ ' ' #.",
"[ [ ` *.' ` ' O.{ _ ] ] [ #.{ w.0.] ! ~ _ _ ` N.U.K.E.$X$X&X&X&X%X%X%X*X-X;X;X/.L.I.y.#.` ` [ [ #.#.X.[ ` O.#.$.` ^ [ ) ` ' #.' ",
"` ` #.@.[ _ [ @._ 9.' ' X.@.0.$.{ ] ] ] _ _ ` _ v * < g C F.Y.T.R.E.E.Y.H.Z k < $ r f.{ ' O.` ` { &.` _ _ [ #.#.` _ ^ ~ ' ' @.{ ",
"` ' @.[ _ _ _ ' { q.9.0.[ O.{ { ] ] _ ` _ ` ] <.3 + O O O @ & * : , , * # O O $ e u z 2.O.+.q.O.{ @.' { _ ] [ ` ` O.~ _ @._ { [ ",
"' $.` _ { ] { 0.{ &.` ` { $.@.` ] ] ` ` 0.{ { j.> # # # @ $ @ $ # # # O O @ ; t i i a b #.{ w.$.O.[ 0.{ ` ` [ ' ^ #.$.` o.O.O.[ ",
"$.$.' ` ` _ [ &.#._ _ _ @.0.' ` _ _ ` o.@.@.` c.& @ $ @ $ & * @ + @ # $ * e u u u u u s 2.@.@.[ _ { &.] ' ' [ ' O.#.[ _ ` @.` @.",
"[ { ' O.q.9.' -.{ _ [ _ [ { ' O.` _ [ ` ` { ] n @ @ @ & ; r t $ @ * < t u a a u u t u a g.[ [ [ ] _ ` ` { @.@.' ` @.` ( ~ O.O.@.",
"] _ O.#.w.w.@.#.{ 0.` ` [ @.` @.#.o.o.O.+.` =.d @ $ $ , u a 2 O ; u p a u u s m C A C z n ` ~ [ ] { ` #.@.#.` O.@._ [ [ [ $.#.{ ",
"{ ' ` #.$.@.[ [ X.[ ` O.@.' O.#.@._ _ [ ' O.7.> $ $ < u a a 2 $ t u i h C K.'.>X4X6X6X:X X-.` ` ..` ` $.@.O.@.q.O.` o.` _ { { Q ",
"~ $.` ` [ ` ~ ] [ [ ' @.{ ' ' { ` ] _ ` ' #.N.$ # , u a a s : * h C L.XX5X0XyXyX0X0XyXyX3Xe.$.O.@.` ' @.[ ^ ~ [ { O.9.q.O.[ @._ ",
"~ [ ` _ _ ] ( _ ` O.' #.` O.@.` ` [ ] #.0.X.Y # $ t s a a u g D.XX5XyXyXyX0XyX0X0X0X0XtX2X;.` ` @.$.$.` [ ] _ _ ` $.@.w.$.@.{ 0.",
"` o.O.O.^ ~ _ ` ' @.#.' { 0.{ ' ' ` ` [ w.` v + $ t u u u u C ;XyXyXyXyXyX0X0X0X0XtXtXtX@X[ _ _ [ $.' ` ~ ~ #.@._ @.q.@.@._ [ &.",
"` _ @.` o.` ` @.[ [ [ _ ~ [ { ' +.q.O.{ { { j + * u u u u u h ^.yXyXyXyX0X0X0X0X0XtXtX0X.X` { _ [ [ ` ' ~ ~ [ [ ' ' [ [ ] _ _ { ",
"( ~ ` o.0.9.O.@.' ` [ _ [ _ _ #.@.w.$.O.@.3.d + ; u i u u u s T.6XyXyX7X0XyXyX0XyXyX7X6XA.$._ ` [ ` ` @.@.` O.' O.[ _ _ ) [ _ o.",
"[ [ 0.@.&.{ ` { #.@.` ~ ) O.` O.$.#.[ _ [ 2.3 O ; u u i u u s T.,XyXyXyXyXyXyXyXyXyXyX:Xj.{ ` O.` ` o.#.@.` ` @.` ` _ _ @.@.` @.",
"_ ` { #._ ` _ @.&.{ ` ~ / ] @.` [ @.~ ( ] ,.3 O $ t u a s u g E.-X5XyXyXyXyX0XyXyXyX4XD :.] [ @.@.' ` @._ _ _ ` ` q.9.O.@._ ' O.",
"O.O.{ { _ [ w.[ [ 0.0._ ~ [ [ ` _ ~ ] [ _ ~ 0 O @ e u a u s u M T.=X4X7XyXyX0X0XyX7XL.s >.' o.#.` O.@.` [ [ _ $.@.&.@.O.O.$.@.' ",
"w.$.@.{ ` ] 3.E ( &.{ #.o.` O.O.` _ _ ^ _ O.R & + , u p u u u u z T.*X;X,X4X5X7X6XW.h a >.#.#.o.@.q.' ' ` _ ` @.$.[ _ _ @.#.#.` ",
"@.[ ' 0.[ ] ..( ( [ { [ [ ` [ @.` +._ ` %.` [ :.d * e e t u u u u m $X$X&X*X*X^.D.h a a f.` @._ ] &.{ ' 9.+.O.[ { ` [ _ [ @.O.o.",
"` ` ] e.&.[ ] ..( ( ] ] X.] _ O.@.q.O.#.@.O.` [ >.% @ @ e u u u u p S.$X(.T.A r * u u s <.' [ _ ] [ { O.{ w.0.#.{ O.@._ [ [ _ ` ",
"_ { { [ ..&.( ..( ! ! E ( _ { 0.@.#.` o.#.&.@.` w @ + @ e u i u u p s k a * O O e a a v { #.` ` ` [ X.#.0.&.#.` { &.` ` ^ ) ` ` ",
"[ ] ! [ [ 3.{ @.( [ _ Q Q _ ] 0.{ _ _ ` { 0.` ` f + + @ t u u u u u 2 @ O O + & i j n ,._ ` @.q.O.@.[ O.@.@.[ ] [ [ [ { #.` O.@.",
"] [ _ @.&.X.;.X.] ] _ ` ' ` _ { ` ` ] ` [ { o._ 1 + + @ e a u u u u j Y 0 3 3 f d. .[ [ ' O.{ 0.O.+.@.@.@._ ( ( ` ` ' @.{ ` O.[ ",
"] [ { &...( ] &.{ [ [ { { ] _ _ ` { ` _ [ ` ` | = O + @ e u u u p u l -.&...-.$.' ` ` _ { 0.@.` _ ` #.&.' _ ` ^ ' { $.@.@.' 0.` ",
"{ { { ..] [ ! ..] [ _ _ ] _ E E ] [ ` ' [ ` ' <.$ + O @ e a u u u u x %.[ _ @.{ ' O.+.' ` &.` _ _ ` @.@.O.` ~ ^ { ` { [ ` @.$.` ",
"0.0.{ ] 0.[ ( ! ! E _ _ { ` _ ~ ` [ { @.@.' ' 7.= O O @ e t u u u a d.@.` ( ] ` #.#.w.0.@.{ ' #.[ ` ] ` _ @.$.` [ ` [ [ _ ] { ' ",
"[ ;.[ ( <.! Q Q _ ~ _ _ ] ] ] ~ _ #.O.@.' ' #.` 1.; @ @ e u s s l n 3.@._ [ ' ` { #.q.#.' { &.{ ` _ ` ' ` @.t.#.` 0.0.` [ $.[ #.",
"@.X.( ! ..] ] { ' _ ` _ Q Q _ _ ` @.#.@.{ $.' ' ` ;.>.b d.k.k.2.5.&.#.` _ ~ [ @.' @.{ ` ` [ @.[ { { $.0.' { &.;.@.p.$.#.@.e.@.{ ",
"( ....| ] ] ] e.] ' ` ] E Q _ ' { ' [ [ _ { { ' O.q.w.$.&.w.-.@.$.w.@.o.` ~ _ { ` _ [ [ $._ ` q.0.[ w.w._ { #.y.&.s.e.w.$.y.q.r."
};
