/* XPM */
static char *_1bb0062535b4b839ed292e24de7244119A9VqQmmg52aq2Q[] = {
/* columns rows colors chars-per-pixel */
"64 64 119 2 ",
"   c #0B83AE",
".  c #0686B6",
"X  c #0986B4",
"o  c #068EB7",
"O  c #098BB7",
"+  c #0687B9",
"@  c #0887BA",
"#  c #068BBD",
"$  c #0A8CBD",
"%  c #108FBE",
"&  c #0B90BE",
"*  c #1291BF",
"=  c #078FC1",
"-  c #0A8EC2",
";  c #0791C2",
":  c #0991C2",
">  c #0C90C0",
",  c #0D91C1",
"<  c #0E90C1",
"1  c #0E93C0",
"2  c #0D91C2",
"3  c #0F91C2",
"4  c #0F91C3",
"5  c #0C93C3",
"6  c #0E92C2",
"7  c #0E92C3",
"8  c #0890C4",
"9  c #0891C5",
"0  c #0991C5",
"q  c #0B91C4",
"w  c #0A90C5",
"e  c #0993C4",
"r  c #0A92C4",
"t  c #0B93C5",
"y  c #0992C6",
"u  c #0A92C6",
"i  c #0B93C7",
"p  c #0C92C5",
"a  c #0F93C4",
"s  c #0D93C6",
"d  c #0A94C5",
"f  c #0B95C6",
"g  c #0C94C4",
"h  c #0D94C4",
"j  c #0E95C5",
"k  c #0C94C6",
"l  c #0D95C7",
"z  c #0E94C7",
"x  c #0C96C7",
"c  c #0F96C6",
"v  c #0991C3",
"b  c #0B94C8",
"n  c #0C94C8",
"m  c #0F95C8",
"M  c #0E96C8",
"N  c #0D95C8",
"B  c #1191C0",
"V  c #1090C1",
"C  c #1290C0",
"Z  c #1093C1",
"A  c #1292C1",
"S  c #1191C2",
"D  c #1092C3",
"F  c #1292C3",
"G  c #1493C0",
"H  c #1492C2",
"J  c #1494C3",
"K  c #1695C2",
"L  c #1193C4",
"P  c #1294C5",
"I  c #1396C4",
"U  c #1195C6",
"Y  c #1294C6",
"T  c #1395C6",
"R  c #1395C7",
"E  c #1296C6",
"W  c #1296C7",
"Q  c #1595C4",
"!  c #1494C5",
"~  c #1795C5",
"^  c #1497C5",
"/  c #1595C6",
"(  c #1496C7",
")  c #1696C7",
"_  c #1094C5",
"`  c #129AC2",
"'  c #139BC3",
"]  c #1499C2",
"[  c #159AC3",
"{  c #1699C7",
"}  c #1898C5",
"|  c #1A9BC5",
" . c #1999C6",
".. c #1A99C6",
"X. c #1B9CC6",
"o. c #1096C9",
"O. c #1197CA",
"+. c #1597C8",
"@. c #1797C8",
"#. c #1194C8",
"$. c #1198C8",
"%. c #1299C9",
"&. c #1298CB",
"*. c #1698C9",
"=. c #1599CA",
"-. c #1299C9",
";. c #1A98C8",
":. c #1B99C9",
">. c #1B9BCA",
",. c #1D9BCB",
"<. c #1E9DCA",
"1. c #1B9BCC",
"2. c #1A9CCD",
"3. c #1C9CCD",
"4. c #1F9DCD",
"5. c #22A0D0",
"6. c #2BABDC",
"7. c #2DADDE",
"8. c #34B4E5",
/* pixels */
"' ' ' ] X.X.* O O O $ * & o & & - = = = 9 : ; ; ; : = ; - = - - - @ @ @ @ @ @ @ @ @ @ @ @ - @ @ @ @ @ @ + . + + . . X X         ",
"o o & O % O % % * * $ & & & # & u = 9 9 ; r ; ; ; = = = = - - - - @ V @ @ w @ @ @ @ @ - @ @ - @ @ @ @ @ # + + + # . . . X X X   ",
"o & & & $ O $ $ * * * $ & : ; & - = = - = r : = : = - = - - w w - - @ @ @ w V @ @ @ @ @ @ @ @ @ O @ @ $ + @ # + . . . X O X X   ",
"& & & & $ % % ! * X.] & : e # ; w = = - : = = r = = - = - - - - - @ - @ @ @ @ @ 8 @ @ @ @ - @ - @ $ @ @ # + + + + # + . X X X X ",
"& 1 & $ - S H ! #.1.=.1 p : ; r - - - - - = = = - - = = - - = @ @ @ @ @ @ V @ @ @ @ @ @ @ - - @ @ @ @ - @ @ # + + # @ + X . . . ",
"1 & $ - $ $ $ V ( #.1 - p k : : = = - - - = = = - = = = - = = @ @ C @ @ @ @ V @ + + @ @ @ @ @ - % @ @ @ $ - @ @ # # @ + @ @ + @ ",
"$ $ $ S } } @.@.V $ $ $ e e & # = = - = = = # # - = @ # @ = @ @ C @ @ @ @ @ @ @ @ @ @ @ @ @ - @ @ @ - - - @ - = = = @ - # @ $ $ ",
"S F 1.6.8.7.3.V $ $ S E E ; & # + = @ = # # # # # # @ = @ @ = @ @ @ @ @ w V @ @ w @ w @ = w - w - $ V - - - - = = = - - - $ - - ",
"% @ % 4.5.} % H 4.,.K F F 1 - $ : - $ $ & # # # # # # # # $ $ $ @ @ @ V $ $ $ $ V - - - w w w 4 w - - - - = - = - - u w w - = w ",
"% @ X X @ X % * ;.:.K % - $ $ S S k E S e e ; & $ $ $ $ $ # $ $ C V @ @ $ $ $ $ V - - V w w - w - - - - - = - - - = - - w 9 w - ",
"O $ $ % % % $ % :.K % O $ * & Z 1 r g g k g : & & ; & # $ $ $ # @ - V @ $ $ - $ w - V - - - - - w - - = - ; ; = = = = = 9 9 9 w ",
"H % S K H % ( ..<.K * $ * $ o $ # & & : : & & : ; & : : $ - # & @ - @ @ $ $ - 1 - - - w r u - r w - = = = - ; = = = = = = = w 9 ",
"! S S 1 1 & S ( S E ( E F $ $ S & : & ; & ; ; & & ; & ; ; # # # - @ - @ - - : $ - - : : : r : ; w 9 w - = = & ; : # = = = = 9 9 ",
"@ : 1 - $ 1 1 o @ 1 S =.=.( S E e e ; : ; ; & ; ; & = & & & # # @ - @ - @ @ $ - - - r e r ; r : 9 = 9 = ; = ; & & : ; = = 9 w w ",
"= ; - # & k g g S g 1 #.=.E - $ ; ; ; ; ; ; & & & ; ; & & # ; # @ - - @ - - $ # 1 - : ; 9 : ; ; 9 9 9 = ; ; & ; ; : : : r 9 u u ",
"M ; = r g : 1 g # : : E #.p 1 k & & & ; ; & ; ; ; ; # ; : & : # V V - - - @ $ # # = # & ; ; e e 9 9 8 8 ; ; ; & : : : r = r r r ",
"M z p p p - - r p p p z - - - r r - - r 9 : r ; r r ; - ; r : r r r - - - = = # = = = # # = - - 9 = 9 = : : r ; r r r r u u u u ",
"#.M z M p - - r p p p 1 r - r = r r r ; : : : r r : r = = r 9 r - - r r - = = - = @ = = = = = = = = = = : r r r r r r r u M u M ",
"- - r p r - - p p : p p r u p - - r 9 r - r r = ; r 9 - r : r - - u r - - - r r = = = = = = = = = = = = = = : : r r e r u u u u ",
"r - r - - - - r : k #.-.z - - p r 9 : : 9 ; r r r : : r ; r ; r r - - r - r - - - = - - - - - = = 9 = = ; = = ; ; = : = 9 9 = r ",
"%.E k : M p 1 : & g %.%.g : & g : 9 ; r : r : : r ; r ; r = ; r r r r = = ; - 9 - u r r r r ; = 9 9 r r r k e e ; : ; r w w 9 = ",
"%.k g 1 k k E k k : : : & 1 g : r - r r r ; ; r - r : r r r r - - r r r r r r r - - r 9 : r r : 9 r e e k k M M k M e b u n n b ",
"g & : : g k g g g & : 1 : g Z e ; r r = : r r : r ; r : ; r ; r r = = r r r r r r r = r r ; - r r e e e e e e e e e b e 9 u u u ",
"g g 1 : 1 & : : & : k k k 1 k g : : r = r r = r : r ; : 9 - r r r r 9 r r = r : 9 = r r : : 9 ; ; 9 e e k k M M M M b b b b b b ",
"g k k g ; : : : & g { %.g k g Z = = ; : r = r r - : r ; r ; r = = r : : r : r ; - 9 : ; r : : r e ; ; r e M b M b M M M M x b b ",
"& 1 k 1 & ; & e : k -.%.g g g g r r : r r = r ; 9 : : r : r : r 9 r : 9 ; r - r r ; : r ; r r ; ; ; 9 r e e e e x x M M b b b b ",
"k c -.k : & : : : e -.c : : : : r r r r : r r : r = r ; r ; - r : r ; r : r 9 : : r : : r 9 : r e e : = e r r r e k k k b b b u ",
"k -.-.c e # & : & & %.k & : : : r r r r r r = r r r : r : : 9 r : : r - r ; r : r ; r : - r : : : : ; : ; r r r e k e e u r u b ",
": e e k r r e k e ; M r r r r r r = = r r = r ; ; r r r ; r r = : r : r ; r 9 : r ; r 9 : 9 ; r e r : ; = r r r r r 9 r r 9 u u ",
"; : : r k k k k e ; r r r e r = = r r : r r : r r - = r 9 - : r r ; r ; r - : : r = - r r - r r r : : r : r ; r 9 r = = 9 r 9 u ",
": e r r p k k r r = r : = : ; : 9 r : r ; 9 : ; 9 : r : : ; r ; = r : r r ; r ; r r r ; ; r r = ; r r : r ; r r : : r r u = r 9 ",
": : r : : r r r : = r r : r r r : : r ; r - : r : : ; r : r : r = r : 9 - r : r = r : r : : : r : = r : - r ; = r r u = u u 9 w ",
"; e ; ; e ; ; 9 ; e ; ; ; e : ; r ; : : = r ; r r : r : r : r : r r - 9 : ; r : : : r : r = r ; r r ; r ; r : r - 9 r r - : r ; ",
"e ; e 9 ; e : ; e ; e 9 e ; 9 9 : r : 9 r : r : = r ; r = r ; r r ; r ; : r ; r r ; ; r r r : : : : 9 - r - r ; : : = r 9 : : r ",
"e : r : r : ; r e : r : : : r ; r ; - r r = ; r r r r ; r r r ; - r r r : : r : : r ; r = ; r 9 r : : r ; r 9 : r : r : r = r ; ",
"r : ; r : r r : : : ; r : r : r - r r ; r r r : r ; : : 9 - : : r ; = r r 9 - r 9 - r r r r - r ; : r ; r : : r ; r ; r r r : r ",
": r : : r ; r : r ; r : r ; r ; 9 r ; r r ; r : - r : r : r ; 9 r = : r ; r ; r = r r = - r r = r - - 9 : : = r r : r : ; r 9 : ",
"r ; ; r : r - 9 : r ; r : r - r : : r : : r - 9 r ; r = r ; r - r r : : r : : : r r : r 9 ; r r 9 r r ; ; r r r ; r ; : r - : : ",
"r : r : r ; r : r : r : r ; - r r r ; r r ; r : r : r ; : r r - ; r ; r - r r = r = r : : r r : : r ; r r ; r = r : - 9 r = r ; ",
"; r ; r - r ; r ; r ; r : : 9 r = = r : - r ; r ; 9 - r : : 9 r 9 - : 9 r ; r r : r ; : r ; ; r : : r : : r : r = r r ; r r : r ",
"= : = : ; = = : = ; - ; = : = ; r r ; r : r : r ; r - : r ; r ; : r : : 9 r = = r : : r - r 9 : : : r ; : r : r r r ; r : r - 9 ",
"r r ; r r r r r r ; r 9 r : : r r : r : r ; r = r r 9 : : r r = r ; ; r r r r r r 9 r = r ; : : r 9 - r r ; r ; r = r : r ; : : ",
"; r 9 : r : ; r - r : 9 : r : r = ; r : - r r = r = = r r : r r ; r r : r = r r : 9 r ; 9 r r r ; r r : - 9 : r r - r : r ; r ; ",
"r - : : ; : 9 - r ; r r r ; r = r r - 9 r ; r r : r r r ; r = r r r = r r = r r : r - r r - r r r : ; r : : : 9 ; r 9 : : r : r ",
"r r r r r r : r r r r r r r ; r r r - r 9 : r ; r ; r = r ; r : - - - r - r r - : - - r - r u - ; r = r = r r - r - r : r r = r ",
"= = = - = : ; = = r = = = : = r ; ; r ; : : : r : r : r : r : r - r - r - - - - - r - r r - - - r : : r r : ; r 9 r ; r = r : r ",
"r - - r - r - r r - - r - r r - r - : r : : r ; r ; - r r = : : r r - = = - - r r - r - - r - r r ; 9 : ; r r : = ; = : ; ; = ; ",
"- r r - r - r - - - r - r - - : : 9 r ; r 9 - r : : 9 ; r r : : - - - - - r = u - r - r u - p - - r : : r : : r = : : ; - 9 - - ",
"- 9 ; : - - = 9 - - - - - - - - = : - - = - = - : - - r - = - : - - = - ; - - ; r = r = : ; : ; - - - - - - r - - - - - - - - - ",
"= = = = - - = - = = $ - = = = = = ; - 9 - : - : = - = - : = = - - - - - - - 9 = = : = : - : = : = = = = = = = = - - - - - - - - ",
"- - - - @ - - - - - - - - - - - ; & & ; = & ; ; & ; - # & : : # - - = - - : = r 9 = = ; ; ; = = ; = = ; = - = = = - - - - - p p ",
"- - - - - V - - - - - - - - - - # = & # # : # & & ; & # # : : : - - r = - - : ; ; : r = : = = ; r = = r - - - - = r u z r - - - ",
"$ $ % - @ V $ - V $ $ % @ @ V - & ; & & ; # $ = # ; & # : g p 1 4 #.- - = - r = - : - ; : = = = = - ; ; : = r = - - u z u - - - ",
"$ - - $ $ - $ V $ $ - - - - - $ $ ; # ; & & ; & & # : p g g 1 : #.- - - = - = r ; ; : ; ; ; = = ; ; - ; = r = : - - p z p - - r ",
"$ - % $ $ - $ $ - $ $ & $ $ $ $ - $ : $ $ - - $ # & : F E 1 - - - - - - - r : r - ; = : ; - ; : : = = = ; = = = r 9 r - u - r - ",
"- $ $ - - $ $ - - $ - $ - - $ - $ & $ - & $ 1 $ : : 1 p 1 $ - 1 - - - u r - r : ; 9 - ; : = : ; r r r r r r r r r r r - - - r r ",
"$ : & # : # : $ & - # ; & # ; & - $ 1 : $ $ - $ - - p 1 S - 1 E #.- - : p r r - : : r : r ; : : r r r r r r r r = r - - r - - = ",
"& # ; & & ; & $ : & = & ; & ; ; $ - - $ - 1 $ - - 1 F p 1 - p Z - #.- - - : : r : : ; r : r : : 9 - r ; = = 9 = r r z r - = r z ",
"; & ; : : & - - & ; & ; # ; & ; : 1 - V 1 - $ 1 $ S p E F 1 S - - V - : : $ : : ; ; ; ; : ; : ; : : = : = : 9 r - r z - z - z M ",
"& ; $ ; & ; - - # ; ; & ; & ; & $ 1 $ - - $ 1 - 1 F F E p p - $ - - - 1 : ; & : & ; & ; ; & & ; ; r : : 9 r r - r - = - z M z z ",
"= - - - @ - - - = = - - ; ; ; ; - - - - - - - - p p E E F p p - $ : & : : ; & # ; & ; & & ; ; # ; r r : - - = = - - - - w M z - ",
"- - - $ - - - - - - - - ; ; ; r - V V - V - V - - 1 p 1 F F 1 p 1 : & & & & ; ; = & # ; ; & : ; : = ; = - = = - w w #.w - p r - ",
"- @ - - - - - - - - - - - = - r V w 4 4 - V - #.- V - - 4 - - p p E g : ; & ; : & ; & ; & ; : & - - - = = - p - z z #.#.- - - - ",
"V V - V - - - - - - - - = - - - - - - - - - - V - - - - - - - - p F c k : & ; & ; ; ; & ; ; : : p - = = - - z z z z V - - #.- - "
};
